<?xml version="1.0" encoding="us-ascii" standalone="no"?><svg xmlns="http://www.w3.org/2000/svg" xmlns:xlink="http://www.w3.org/1999/xlink" contentStyleType="text/css" height="1154px" preserveAspectRatio="none" style="width:1346px;height:1154px;background:#FFFFFF;" version="1.1" viewBox="0 0 1346 1154" width="1346px" zoomAndPan="magnify"><defs><linearGradient id="g1e3i1fxafahcq0" x1="50%" x2="50%" y1="0%" y2="100%"><stop offset="0%" stop-color="#00FFFF"/><stop offset="100%" stop-color="#5F9EA0"/></linearGradient></defs><g><rect fill="url(#g1e3i1fxafahcq0)" height="29.0679" id="_title" rx="7.5" ry="7.5" style="stroke:none;stroke-width:2.0;" width="249" x="541.675" y="5"/><text fill="#000000" font-family="sans-serif" font-size="14" font-weight="bold" lengthAdjust="spacing" textLength="239" x="546.675" y="24.9659">FileSystemTreeView modules - API</text><!--cluster common-filesystem-view-base--><g id="cluster_common-filesystem-view-base"><rect fill="#FFFFF0" height="861.49" rx="2.5" ry="2.5" style="stroke:#000000;stroke-width:1.5;" width="1113" x="121.35" y="47.0679"/><path d="M343.35,47.0679 L343.35,59.1358 L333.35,69.1358 L121.35,69.1358 " fill="none" style="stroke:#000000;stroke-width:1.5;"/><text fill="#000000" font-family="sans-serif" font-size="14" font-weight="bold" lengthAdjust="spacing" textLength="212" x="124.35" y="63.0339">common-filesystem-view-base</text></g><!--cluster common-filesystem-view-swing--><g id="cluster_common-filesystem-view-swing"><rect fill="#B0E0E6" height="216.41" rx="2.5" ry="2.5" style="stroke:#000000;stroke-width:1.5;" width="566" x="62.35" y="932.5579"/><path d="M293.35,932.5579 L293.35,944.6258 L283.35,954.6258 L62.35,954.6258 " fill="none" style="stroke:#000000;stroke-width:1.5;"/><text fill="#000000" font-family="sans-serif" font-size="14" font-weight="bold" lengthAdjust="spacing" textLength="221" x="65.35" y="948.5239">common-filesystem-view-swing</text></g><!--cluster common-filesystem-view-fx--><g id="cluster_common-filesystem-view-fx"><rect fill="#D8BFD8" height="216.41" rx="2.5" ry="2.5" style="stroke:#000000;stroke-width:1.5;" width="550" x="790.35" y="932.5579"/><path d="M993.35,932.5579 L993.35,944.6258 L983.35,954.6258 L790.35,954.6258 " fill="none" style="stroke:#000000;stroke-width:1.5;"/><text fill="#000000" font-family="sans-serif" font-size="14" font-weight="bold" lengthAdjust="spacing" textLength="193" x="793.35" y="948.5239">common-filesystem-view-fx</text></g><!--class Configuration--><g id="elem_Configuration"><rect codeLine="52" fill="#F1F1F1" height="67.0679" id="Configuration" rx="2.5" ry="2.5" style="stroke:#181818;stroke-width:0.5;" width="136" x="810.35" y="93.0679"/><ellipse cx="830.3" cy="109.0679" fill="#F1F1F1" rx="11" ry="11" style="stroke:#181818;stroke-width:1.0;"/><path d="M829.9719,115.7398 Q829.05,115.7398 828.1594,115.5679 Q827.2688,115.3804 826.4875,115.0054 L826.4875,112.7554 Q827.4406,113.2398 828.3156,113.4742 Q829.2063,113.6929 830.05,113.6929 Q830.925,113.6929 831.4875,113.396 Q832.05,113.0992 832.05,112.3179 Q832.05,111.771 831.7531,111.4742 Q831.4563,111.1617 830.8938,110.8804 Q830.3313,110.5992 829.55,110.1929 Q828.7688,109.771 828.1125,109.2867 Q827.4719,108.7867 827.0969,108.1148 Q826.7219,107.4429 826.7219,106.4898 Q826.7219,104.8648 827.8156,104.0679 Q828.925,103.2554 830.7063,103.2554 Q831.425,103.2554 832.4094,103.4273 Q833.3938,103.5835 834.3469,104.0367 L833.5656,105.9585 Q832.7219,105.5992 832.0344,105.4585 Q831.3625,105.3023 830.8469,105.3023 Q830.0031,105.3023 829.6125,105.646 Q829.2375,105.9742 829.2375,106.6148 Q829.2375,107.0992 829.4719,107.4117 Q829.7219,107.7085 830.1906,107.9585 Q830.675,108.2085 831.4094,108.5835 Q832.4094,109.0679 833.1125,109.5367 Q833.8156,110.0054 834.1906,110.6304 Q834.5656,111.2398 834.5656,112.1773 Q834.5656,113.3648 833.9875,114.1617 Q833.425,114.9429 832.3781,115.3492 Q831.3469,115.7398 829.9719,115.7398 Z " fill="#000000"/><text fill="#000000" font-family="sans-serif" font-size="14" lengthAdjust="spacing" textLength="93" x="845.4" y="114.4999">Configuration</text><line style="stroke:#181818;stroke-width:0.5;" x1="811.35" x2="945.35" y1="125.0679" y2="125.0679"/><line style="stroke:#181818;stroke-width:0.5;" x1="811.35" x2="945.35" y1="133.0679" y2="133.0679"/><ellipse cx="821.35" cy="148.1019" fill="#84BE84" rx="3" ry="3" style="stroke:#038048;stroke-width:1.0;"/><text fill="#000000" font-family="sans-serif" font-size="14" lengthAdjust="spacing" text-decoration="underline" textLength="110" x="830.35" y="152.0339">Builder builder()</text></g><!--class Builder--><g id="elem_Builder"><rect codeLine="44" fill="#F1F1F1" height="143.3396" id="Builder" rx="2.5" ry="2.5" style="stroke:#181818;stroke-width:0.5;" width="664" x="546.35" y="220.1379"/><ellipse cx="849.6" cy="236.1379" fill="#ADD1B2" rx="11" ry="11" style="stroke:#181818;stroke-width:1.0;"/><path d="M849.0688,243.0598 Q847.3188,243.0598 846.1781,242.3254 Q845.0531,241.5754 844.4906,240.2317 Q843.9438,238.8723 843.9438,237.0754 Q843.9438,235.0442 844.6,233.591 Q845.2563,232.1379 846.5375,231.3567 Q847.8188,230.5754 849.6938,230.5754 Q850.5844,230.5754 851.2563,230.7629 Q851.9281,230.9348 852.6156,231.2785 L851.8031,233.2942 Q851.1781,232.9817 850.6313,232.8567 Q850.1,232.7317 849.6156,232.7317 Q848.4438,232.7317 847.7406,233.2629 Q847.0375,233.7942 846.7406,234.7473 Q846.4438,235.7004 846.4438,236.966 Q846.4438,238.9817 847.1625,239.9504 Q847.8813,240.9035 849.475,240.9035 Q850.0688,240.9035 850.6938,240.7473 Q851.3188,240.591 852.1469,240.216 L852.1469,242.4348 Q851.4125,242.7473 850.6156,242.9035 Q849.8344,243.0598 849.0688,243.0598 Z " fill="#000000"/><text fill="#000000" font-family="sans-serif" font-size="14" lengthAdjust="spacing" textLength="49" x="870.1" y="241.5699">Builder</text><line style="stroke:#181818;stroke-width:0.5;" x1="547.35" x2="1209.35" y1="252.1379" y2="252.1379"/><line style="stroke:#181818;stroke-width:0.5;" x1="547.35" x2="1209.35" y1="260.1379" y2="260.1379"/><ellipse cx="557.35" cy="275.1719" fill="#84BE84" rx="3" ry="3" style="stroke:#038048;stroke-width:1.0;"/><text fill="#000000" font-family="sans-serif" font-size="14" lengthAdjust="spacing" textLength="370" x="566.35" y="279.1039">Builder setFileSystem(@Nullable FileSystem fileSystem)</text><ellipse cx="557.35" cy="294.2398" fill="#84BE84" rx="3" ry="3" style="stroke:#038048;stroke-width:1.0;"/><text fill="#000000" font-family="sans-serif" font-size="14" lengthAdjust="spacing" textLength="470" x="566.35" y="298.1718">Builder setRequestingWatchService(boolean requestingWatchService)</text><ellipse cx="557.35" cy="313.3077" fill="#84BE84" rx="3" ry="3" style="stroke:#038048;stroke-width:1.0;"/><text fill="#000000" font-family="sans-serif" font-size="14" lengthAdjust="spacing" textLength="580" x="566.35" y="317.2397">Builder setFileNameComparator(@Nullable Comparator&lt;String&gt; fileNameComparator)</text><ellipse cx="557.35" cy="332.3756" fill="#84BE84" rx="3" ry="3" style="stroke:#038048;stroke-width:1.0;"/><text fill="#000000" font-family="sans-serif" font-size="14" lengthAdjust="spacing" textLength="638" x="566.35" y="336.3076">Builder setUserNodeConfiguration(@Nullable UserNodeConfiguration userNodeConfiguration)</text><ellipse cx="557.35" cy="351.4435" fill="#84BE84" rx="3" ry="3" style="stroke:#038048;stroke-width:1.0;"/><text fill="#000000" font-family="sans-serif" font-size="14" lengthAdjust="spacing" textLength="140" x="566.35" y="355.3755">Configuration build()</text></g><!--class SimpleUserNodeConfiguration--><g id="elem_SimpleUserNodeConfiguration"><rect codeLine="40" fill="#F1F1F1" height="67.0679" id="SimpleUserNodeConfiguration" rx="2.5" ry="2.5" style="stroke:#181818;stroke-width:0.5;" width="324" x="886.35" y="769.8179"/><ellipse cx="941.1" cy="785.8179" fill="#ADD1B2" rx="11" ry="11" style="stroke:#181818;stroke-width:1.0;"/><path d="M940.5688,792.7398 Q938.8188,792.7398 937.6781,792.0054 Q936.5531,791.2554 935.9906,789.9117 Q935.4438,788.5523 935.4438,786.7554 Q935.4438,784.7242 936.1,783.271 Q936.7563,781.8179 938.0375,781.0367 Q939.3188,780.2554 941.1938,780.2554 Q942.0844,780.2554 942.7563,780.4429 Q943.4281,780.6148 944.1156,780.9585 L943.3031,782.9742 Q942.6781,782.6617 942.1313,782.5367 Q941.6,782.4117 941.1156,782.4117 Q939.9438,782.4117 939.2406,782.9429 Q938.5375,783.4742 938.2406,784.4273 Q937.9438,785.3804 937.9438,786.646 Q937.9438,788.6617 938.6625,789.6304 Q939.3813,790.5835 940.975,790.5835 Q941.5688,790.5835 942.1938,790.4273 Q942.8188,790.271 943.6469,789.896 L943.6469,792.1148 Q942.9125,792.4273 942.1156,792.5835 Q941.3344,792.7398 940.5688,792.7398 Z " fill="#000000"/><text fill="#000000" font-family="sans-serif" font-size="14" lengthAdjust="spacing" textLength="206" x="961.6" y="791.2499">SimpleUserNodeConfiguration</text><line style="stroke:#181818;stroke-width:0.5;" x1="887.35" x2="1209.35" y1="801.8179" y2="801.8179"/><line style="stroke:#181818;stroke-width:0.5;" x1="887.35" x2="1209.35" y1="809.8179" y2="809.8179"/><ellipse cx="897.35" cy="824.8519" fill="#84BE84" rx="3" ry="3" style="stroke:#038048;stroke-width:1.0;"/><text fill="#000000" font-family="sans-serif" font-size="14" lengthAdjust="spacing" text-decoration="underline" textLength="298" x="906.35" y="828.7839">SimpleUserNodeConfiguration getInstance()</text></g><!--class IFileSystemTreeView--><g id="elem_IFileSystemTreeView"><rect codeLine="64" fill="#F1F1F1" height="162.4075" id="IFileSystemTreeView" rx="2.5" ry="2.5" style="stroke:#181818;stroke-width:0.5;" width="707" x="144.85" y="722.1479"/><ellipse cx="430.6" cy="738.1479" fill="#B4A7E5" rx="11" ry="11" style="stroke:#181818;stroke-width:1.0;"/><path d="M426.6313,744.6479 L426.6313,742.9448 L428.9906,742.6792 L428.9906,734.476 L426.6313,734.2104 L426.6313,732.5073 L433.7719,732.5073 L433.7719,734.2104 L431.35,734.476 L431.35,742.6792 L433.7719,742.9448 L433.7719,744.6479 L426.6313,744.6479 Z " fill="#000000"/><text fill="#000000" font-family="sans-serif" font-size="14" font-style="italic" lengthAdjust="spacing" textLength="127" x="451.1" y="743.5799">IFileSystemTreeView</text><line style="stroke:#181818;stroke-width:0.5;" x1="145.85" x2="850.85" y1="754.1479" y2="754.1479"/><line style="stroke:#181818;stroke-width:0.5;" x1="145.85" x2="850.85" y1="762.1479" y2="762.1479"/><text fill="#000000" font-family="sans-serif" font-size="14" lengthAdjust="spacing" textLength="695" x="150.85" y="781.1139">@Nullable Path expandPath(@Nullable Path absolutePath, boolean expandLastElement, boolean select)</text><text fill="#000000" font-family="sans-serif" font-size="14" lengthAdjust="spacing" textLength="134" x="150.85" y="800.1818">void clearSelection()</text><text fill="#000000" font-family="sans-serif" font-size="14" lengthAdjust="spacing" textLength="225" x="150.85" y="819.2497">@Nullable Path getSelectedPath()</text><text fill="#000000" font-family="sans-serif" font-size="14" lengthAdjust="spacing" textLength="164" x="150.85" y="838.3176">boolean isPathSelected()</text><text fill="#000000" font-family="sans-serif" font-size="14" lengthAdjust="spacing" textLength="249" x="150.85" y="857.3855">SortedSet&lt;Path&gt; getExpandedPaths()</text><text fill="#000000" font-family="sans-serif" font-size="14" lengthAdjust="spacing" textLength="118" x="150.85" y="876.4534">void updateTree()</text></g><!--class UserNodeConfiguration--><g id="elem_UserNodeConfiguration"><rect codeLine="26" fill="#F1F1F1" height="238.6792" id="UserNodeConfiguration" rx="2.5" ry="2.5" style="stroke:#181818;stroke-width:0.5;" width="452" x="705.35" y="423.4779"/><ellipse cx="853.1" cy="439.4779" fill="#B4A7E5" rx="11" ry="11" style="stroke:#181818;stroke-width:1.0;"/><path d="M849.1313,445.9779 L849.1313,444.2748 L851.4906,444.0092 L851.4906,435.806 L849.1313,435.5404 L849.1313,433.8373 L856.2719,433.8373 L856.2719,435.5404 L853.85,435.806 L853.85,444.0092 L856.2719,444.2748 L856.2719,445.9779 L849.1313,445.9779 Z " fill="#000000"/><text fill="#000000" font-family="sans-serif" font-size="14" font-style="italic" lengthAdjust="spacing" textLength="148" x="873.6" y="444.9099">UserNodeConfiguration</text><line style="stroke:#181818;stroke-width:0.5;" x1="706.35" x2="1156.35" y1="455.4779" y2="455.4779"/><text fill="#000000" font-family="sans-serif" font-size="14" lengthAdjust="spacing" textLength="260" x="711.35" y="474.4439">DEFAULT_LINK_OPTIONS : LinkOption[]</text><line style="stroke:#181818;stroke-width:0.5;" x1="706.35" x2="1156.35" y1="482.5458" y2="482.5458"/><text fill="#000000" font-family="sans-serif" font-size="14" lengthAdjust="spacing" textLength="197" x="711.35" y="501.5118">LinkOption[] getLinkOptions()</text><text fill="#000000" font-family="sans-serif" font-size="14" lengthAdjust="spacing" textLength="347" x="711.35" y="520.5797">boolean isCreatingNodeForDirectory(Path directory)</text><text fill="#000000" font-family="sans-serif" font-size="14" lengthAdjust="spacing" textLength="270" x="711.35" y="539.6476">boolean isCreatingNodeForFile(Path file)</text><text fill="#000000" font-family="sans-serif" font-size="14" lengthAdjust="spacing" textLength="346" x="711.35" y="558.7155">@Nullable FileSystem createFileSystemFor(Path file)</text><text fill="#000000" font-family="sans-serif" font-size="14" lengthAdjust="spacing" textLength="322" x="711.35" y="577.7834">void onClosingFileSystem(FileSystem fileSystem)</text><text fill="#000000" font-family="sans-serif" font-size="14" lengthAdjust="spacing" textLength="206" x="711.35" y="596.8514">boolean isLeafNode(Path path)</text><text fill="#000000" font-family="sans-serif" font-size="14" lengthAdjust="spacing" textLength="254" x="711.35" y="615.9193">boolean isRequestingUpdateNotifier()</text><text fill="#000000" font-family="sans-serif" font-size="14" lengthAdjust="spacing" textLength="357" x="711.35" y="634.9872">void setUpdateNotifier(@Nullable Runnable callback)</text><text fill="#000000" font-family="sans-serif" font-size="14" lengthAdjust="spacing" textLength="440" x="711.35" y="654.0551">UserNodeConfiguration getUserNodeConfigurationFor(Path path)</text></g><!--class Closeable--><g id="elem_Closeable"><rect codeLine="60" fill="#F1F1F1" height="67.0679" id="Closeable" rx="2.5" ry="2.5" style="stroke:#181818;stroke-width:0.5;" width="221" x="387.85" y="509.2779"/><ellipse cx="440.6" cy="525.2779" fill="#B4A7E5" rx="11" ry="11" style="stroke:#181818;stroke-width:1.0;"/><path d="M436.6313,531.7779 L436.6313,530.0748 L438.9906,529.8092 L438.9906,521.606 L436.6313,521.3404 L436.6313,519.6373 L443.7719,519.6373 L443.7719,521.3404 L441.35,521.606 L441.35,529.8092 L443.7719,530.0748 L443.7719,531.7779 L436.6313,531.7779 Z " fill="#000000"/><text fill="#000000" font-family="sans-serif" font-size="14" font-style="italic" lengthAdjust="spacing" textLength="107" x="461.1" y="530.7099">java.io.Closeable</text><line style="stroke:#181818;stroke-width:0.5;" x1="388.85" x2="607.85" y1="541.2779" y2="541.2779"/><line style="stroke:#181818;stroke-width:0.5;" x1="388.85" x2="607.85" y1="549.2779" y2="549.2779"/><text fill="#000000" font-family="sans-serif" font-size="14" lengthAdjust="spacing" textLength="209" x="393.85" y="568.2439">void close() throws IOException</text></g><!--class JFileSystemTreeView--><g id="elem_JFileSystemTreeView"><rect codeLine="77" fill="#F1F1F1" height="162.4075" id="JFileSystemTreeView" rx="2.5" ry="2.5" style="stroke:#181818;stroke-width:0.5;" width="533" x="78.85" y="970.5579"/><ellipse cx="278.1" cy="986.5579" fill="#B4A7E5" rx="11" ry="11" style="stroke:#181818;stroke-width:1.0;"/><path d="M274.1313,993.0579 L274.1313,991.3548 L276.4906,991.0892 L276.4906,982.886 L274.1313,982.6204 L274.1313,980.9173 L281.2719,980.9173 L281.2719,982.6204 L278.85,982.886 L278.85,991.0892 L281.2719,991.3548 L281.2719,993.0579 L274.1313,993.0579 Z " fill="#000000"/><text fill="#000000" font-family="sans-serif" font-size="14" font-style="italic" lengthAdjust="spacing" textLength="126" x="298.6" y="991.9899">JFileSystemTreeView</text><line style="stroke:#181818;stroke-width:0.5;" x1="79.85" x2="610.85" y1="1002.5579" y2="1002.5579"/><line style="stroke:#181818;stroke-width:0.5;" x1="79.85" x2="610.85" y1="1010.5579" y2="1010.5579"/><text fill="#000000" font-family="sans-serif" font-size="14" lengthAdjust="spacing" text-decoration="underline" textLength="248" x="84.85" y="1029.5239">JFileSystemTreeView createInstance()</text><text fill="#000000" font-family="sans-serif" font-size="14" lengthAdjust="spacing" text-decoration="underline" textLength="510" x="84.85" y="1048.5918">JFileSystemTreeView createInstance(@Nullable Configuration configuration)</text><text fill="#000000" font-family="sans-serif" font-size="14" lengthAdjust="spacing" textLength="276" x="84.85" y="1067.6597">javax.swing.JComponent getComponent()</text><text fill="#000000" font-family="sans-serif" font-size="14" lengthAdjust="spacing" textLength="180" x="84.85" y="1086.7276">javax.swing.JTree getTree()</text><text fill="#000000" font-family="sans-serif" font-size="14" lengthAdjust="spacing" textLength="471" x="84.85" y="1105.7955">void addPathSelectionListener(Consumer&lt;@Nullable Path&gt; consumer)</text><text fill="#000000" font-family="sans-serif" font-size="14" lengthAdjust="spacing" textLength="521" x="84.85" y="1124.8634">boolean removePathSelectionListener(Consumer&lt;@Nullable Path&gt; consumer)</text></g><!--class FileSystemTreeView--><g id="elem_FileSystemTreeView"><rect codeLine="93" fill="#F1F1F1" height="162.4075" id="FileSystemTreeView" rx="2.5" ry="2.5" style="stroke:#181818;stroke-width:0.5;" width="518" x="806.35" y="970.5579"/><ellipse cx="1000.1" cy="986.5579" fill="#B4A7E5" rx="11" ry="11" style="stroke:#181818;stroke-width:1.0;"/><path d="M996.1313,993.0579 L996.1313,991.3548 L998.4906,991.0892 L998.4906,982.886 L996.1313,982.6204 L996.1313,980.9173 L1003.2719,980.9173 L1003.2719,982.6204 L1000.85,982.886 L1000.85,991.0892 L1003.2719,991.3548 L1003.2719,993.0579 L996.1313,993.0579 Z " fill="#000000"/><text fill="#000000" font-family="sans-serif" font-size="14" font-style="italic" lengthAdjust="spacing" textLength="122" x="1020.6" y="991.9899">FileSystemTreeView</text><line style="stroke:#181818;stroke-width:0.5;" x1="807.35" x2="1323.35" y1="1002.5579" y2="1002.5579"/><line style="stroke:#181818;stroke-width:0.5;" x1="807.35" x2="1323.35" y1="1010.5579" y2="1010.5579"/><text fill="#000000" font-family="sans-serif" font-size="14" lengthAdjust="spacing" text-decoration="underline" textLength="244" x="812.35" y="1029.5239">FileSystemTreeView createInstance()</text><text fill="#000000" font-family="sans-serif" font-size="14" lengthAdjust="spacing" text-decoration="underline" textLength="506" x="812.35" y="1048.5918">FileSystemTreeView createInstance(@Nullable Configuration configuration)</text><text fill="#000000" font-family="sans-serif" font-size="14" lengthAdjust="spacing" textLength="290" x="812.35" y="1067.6597">javafx.scene.layout.Region getComponent()</text><text fill="#000000" font-family="sans-serif" font-size="14" lengthAdjust="spacing" textLength="370" x="812.35" y="1086.7276">javafx.scene.control.TreeView&lt;PathView&gt; getTreeView()</text><text fill="#000000" font-family="sans-serif" font-size="14" lengthAdjust="spacing" textLength="441" x="812.35" y="1105.7955">ReadOnlyObjectProperty&lt;@Nullable Path&gt; selectedPathProperty()</text><text fill="#000000" font-family="sans-serif" font-size="14" lengthAdjust="spacing" textLength="333" x="812.35" y="1124.8634">ReadOnlyBooleanProperty pathSelectedProperty()</text></g><!--reverse link UserNodeConfiguration to SimpleUserNodeConfiguration--><g id="link_UserNodeConfiguration_SimpleUserNodeConfiguration"><path d="M992.4807,678.8871 C1010.2007,718.0471 1021.09,742.1179 1033.43,769.3879 " fill="none" id="UserNodeConfiguration-backto-SimpleUserNodeConfiguration" style="stroke:#181818;stroke-width:1.0;stroke-dasharray:7.0,7.0;"/><polygon fill="none" points="985.06,662.4879,987.0143,681.3607,997.9471,676.4136,985.06,662.4879" style="stroke:#181818;stroke-width:1.0;"/></g><!--reverse link Configuration to Builder--><g id="link_Configuration_Builder"><path codeLine="56" d="M878.35,176.6279 C878.35,193.6679 878.35,199.1579 878.35,219.7479 " fill="none" id="Configuration-backto-Builder" style="stroke:#181818;stroke-width:1.0;"/><ellipse cx="878.35" cy="168.6279" fill="#FFFFFF" rx="8" ry="8" style="stroke:#181818;stroke-width:1.0;"/><line style="stroke:#181818;stroke-width:1.0;" x1="878.35" x2="878.35" y1="176.6279" y2="160.6279"/><line style="stroke:#181818;stroke-width:1.0;" x1="870.35" x2="886.35" y1="168.6279" y2="168.6279"/></g><!--link Builder to UserNodeConfiguration--><g id="link_Builder_UserNodeConfiguration"><path codeLine="58" d="M893.47,363.8279 C897.42,382.3679 900.5305,396.9995 904.8505,417.2895 " fill="none" id="Builder-to-UserNodeConfiguration" style="stroke:#181818;stroke-width:1.0;"/><polygon fill="#181818" points="906.1,423.1579,908.1381,413.5222,905.0588,418.2675,900.3135,415.1882,906.1,423.1579" style="stroke:#181818;stroke-width:1.0;"/></g><!--reverse link Closeable to IFileSystemTreeView--><g id="link_Closeable_IFileSystemTreeView"><path d="M498.35,594.8179 C498.35,631.1679 498.35,672.9379 498.35,721.8179 " fill="none" id="Closeable-backto-IFileSystemTreeView" style="stroke:#181818;stroke-width:1.0;"/><polygon fill="none" points="498.35,576.8179,492.35,594.8179,504.35,594.8179,498.35,576.8179" style="stroke:#181818;stroke-width:1.0;"/></g><!--reverse link IFileSystemTreeView to JFileSystemTreeView--><g id="link_IFileSystemTreeView_JFileSystemTreeView"><path codeLine="86" d="M438.7568,900.331 C421.7668,927.701 412.28,942.9679 395.3,970.3179 " fill="none" id="IFileSystemTreeView-backto-JFileSystemTreeView" style="stroke:#181818;stroke-width:1.0;"/><polygon fill="none" points="448.25,885.0379,433.6591,897.1666,443.8545,903.4954,448.25,885.0379" style="stroke:#181818;stroke-width:1.0;"/></g><!--link JFileSystemTreeView to Configuration--><g id="link_JFileSystemTreeView_Configuration"><path codeLine="87" d="M175.86,970.0979 C157.45,954.7879 141.15,937.0179 129.35,916.5579 C19.85,726.6979 6,609.8479 121.35,423.4779 C270.9,181.8579 647.5879,137.5954 804.0979,129.5654 " fill="none" id="JFileSystemTreeView-to-Configuration" style="stroke:#181818;stroke-width:1.0;"/><polygon fill="#181818" points="810.09,129.2579,800.8969,125.7243,805.0966,129.5141,801.3068,133.7138,810.09,129.2579" style="stroke:#181818;stroke-width:1.0;"/></g><!--reverse link IFileSystemTreeView to FileSystemTreeView--><g id="link_IFileSystemTreeView_FileSystemTreeView"><path codeLine="102" d="M700.5185,892.2121 C763.3385,919.5121 816.95,942.8179 879.76,970.1079 " fill="none" id="IFileSystemTreeView-backto-FileSystemTreeView" style="stroke:#181818;stroke-width:1.0;"/><polygon fill="none" points="684.01,885.0379,698.1271,897.7149,702.9099,886.7093,684.01,885.0379" style="stroke:#181818;stroke-width:1.0;"/></g><!--link FileSystemTreeView to Configuration--><g id="link_FileSystemTreeView_Configuration"><path codeLine="103" d="M1186.75,970.1279 C1202.62,954.2779 1216.7,936.3479 1226.35,916.5579 C1294.18,777.4579 1323.82,341.1479 1227.35,220.1379 C1192.63,176.5679 1043.8115,149.7236 952.4515,136.8736 " fill="none" id="FileSystemTreeView-to-Configuration" style="stroke:#181818;stroke-width:1.0;"/><polygon fill="#181818" points="946.51,136.0379,954.8651,141.2525,951.4613,136.7343,955.9794,133.3304,946.51,136.0379" style="stroke:#181818;stroke-width:1.0;"/></g><!--SRC=[hLRTRnev47zc_mghURX5FP1wqhrK4Mf24uaS0iGcTm_LgJAxi-36QrFRIq1f_lUERVR3OPMqLL_0dY__FFERyUfx9hPKqO8OPZYGnwXtALK6QYbBaOsb4g38kxyhwUs6fVS2j2P_eOYczslbxRXKvE9hIGTZce6vv2L4Jr6aw-XRjALhICm13xb62KIHF_6QSKWEsa1ngm3-PV102fcL73GPa8l598gElYILHI7584S7xHm6ExGUhAW6SZRPINMmyAEUaMim6yIDkvusgamD6KkHitMfg65I49IddE8jBal6yLfH3y66VbwVi6BBuKw3ciaCWY1emuG1bTCKoEJq5ZvcOz8Pn1tryUhwucvw-tawcVtpURwudSnd2NbFfapSpxVMwjF_6AdNtXD4sknrt4VzIaeEL12cnmemkbZRuwwb-iWKf0RJ4o-esP2ishxeP2_axMs-hUc7MSavNGKb8wdrWaQ0dg7NJhACI37cKcFmnZ1k1SdhPGXf2ZItS7p4BVw4-YLyBK5Rq7VR367Cf64v0nNN1simprJDBPQb46wHKivNo37hrLqbp7Qdehxj4Pkj-Al48KvLW33w1LAy9O_Qu3PzUZ4M8fi8D1Gfn0608xEFiQeTvgDLWiwAXiK8N9jy_qTDkab0xHYUMnL4TQhxNG1cE036ih2p0PdO0j88pnEZCDJ80GhjJq9svgOLjJjtPPVKnmuDL_QaAhsT0-LPnIfeA_zVkOO-RmU3UlxWC3sw30QZRhZ1CB7j1EvgL9CtN-YE3faSrj8t3f3hWDJAuZun6oKVD9dCh_OfRFq02mTKnmmZi3SWCjqwxp6O18xyiDzIaTbb_4n3Lrhoqe3T_4agddZxATNcolT1ezB0SJRr6_10LU9ajg3zqxEH_ruF7a0u8AoeKZjL8XKk4p3dLZMoxbSEZNVNpUGetTYmYV3LUuh-89WAyWEFqQilbdv0OfEpXNp0Yjkt4hFQhiHDHoLitcj-THduITmU1Zzbtsx1DalJvyrXoROVkYiCRsnFIe4bj9ciD_69dJtLcbJvz3ccMTPK2CDF6IB43uuO8UYo07KULdjaqJX5kymA2hc3Nmzakw2B- -VVi45lkXxshdJQlWtxzGSPupBqAcNoFJd3Zo_jlz7QP7cDApz9bT_Cb1mfa68fXfmUP6c6IrWVdwrJjjIs6CaeoOSL0jUiTZ6gE6Gtpcy9D9iBVfYllc3f5qfkGPd3IRbrQqPKHe7_fITJfNCFUZrOMWulagMBAx-JAla- -Wu0]--></g></svg>