<?xml version="1.0" encoding="us-ascii" standalone="no"?><svg xmlns="http://www.w3.org/2000/svg" xmlns:xlink="http://www.w3.org/1999/xlink" contentStyleType="text/css" height="837px" preserveAspectRatio="none" style="width:1617px;height:837px;background:#FFFFFF;" version="1.1" viewBox="0 0 1617 837" width="1617px" zoomAndPan="magnify"><defs><linearGradient id="g1vib21u7cqhq20" x1="50%" x2="50%" y1="0%" y2="100%"><stop offset="0%" stop-color="#00FFFF"/><stop offset="100%" stop-color="#5F9EA0"/></linearGradient></defs><g><rect fill="url(#g1vib21u7cqhq20)" height="29.0679" id="_title" rx="7.5" ry="7.5" style="stroke:none;stroke-width:2.0;" width="229" x="687" y="5"/><text fill="#000000" font-family="sans-serif" font-size="14" font-weight="bold" lengthAdjust="spacing" textLength="219" x="692" y="24.9659">FileSystemTreeView node types</text><!--cluster java--><g id="cluster_java"><rect fill="none" height="191.06" rx="2.5" ry="2.5" style="stroke:#000000;stroke-width:1.5;" width="300" x="847" y="47.0679"/><path d="M885,47.0679 L885,59.1358 L875,69.1358 L847,69.1358 " fill="none" style="stroke:#000000;stroke-width:1.5;"/><text fill="#000000" font-family="sans-serif" font-size="14" font-weight="bold" lengthAdjust="spacing" textLength="28" x="850" y="63.0339">java</text></g><!--cluster io--><g id="cluster_io"><rect fill="none" height="121.06" rx="2.5" ry="2.5" style="stroke:#000000;stroke-width:1.5;" width="252" x="871" y="93.0679"/><path d="M894,93.0679 L894,105.1358 L884,115.1358 L871,115.1358 " fill="none" style="stroke:#000000;stroke-width:1.5;"/><text fill="#000000" font-family="sans-serif" font-size="14" font-weight="bold" lengthAdjust="spacing" textLength="13" x="874" y="109.0339">io</text></g><!--cluster base--><g id="cluster_base"><rect fill="#FFFFF0" height="569.15" rx="2.5" ry="2.5" style="stroke:#000000;stroke-width:1.5;" width="1604" x="7" y="262.1279"/><path d="M49,262.1279 L49,274.1958 L39,284.1958 L7,284.1958 " fill="none" style="stroke:#000000;stroke-width:1.5;"/><text fill="#000000" font-family="sans-serif" font-size="14" font-weight="bold" lengthAdjust="spacing" textLength="32" x="10" y="278.0939">base</text></g><!--cluster ctrl--><g id="cluster_ctrl"><rect fill="none" height="499.15" rx="2.5" ry="2.5" style="stroke:#000000;stroke-width:1.5;" width="882" x="31" y="308.1279"/><path d="M64,308.1279 L64,320.1958 L54,330.1958 L31,330.1958 " fill="none" style="stroke:#000000;stroke-width:1.5;"/><text fill="#000000" font-family="sans-serif" font-size="14" font-weight="bold" lengthAdjust="spacing" textLength="23" x="34" y="324.0939">ctrl</text></g><!--class Closeable--><g id="elem_Closeable"><rect codeLine="16" fill="#F1F1F1" height="67.0679" id="Closeable" rx="2.5" ry="2.5" style="stroke:#181818;stroke-width:0.5;" width="221" x="886.5" y="131.0679"/><ellipse cx="962.75" cy="147.0679" fill="#B4A7E5" rx="11" ry="11" style="stroke:#181818;stroke-width:1.0;"/><path d="M958.7813,153.5679 L958.7813,151.8648 L961.1406,151.5992 L961.1406,143.396 L958.7813,143.1304 L958.7813,141.4273 L965.9219,141.4273 L965.9219,143.1304 L963.5,143.396 L963.5,151.5992 L965.9219,151.8648 L965.9219,153.5679 L958.7813,153.5679 Z " fill="#000000"/><text fill="#000000" font-family="sans-serif" font-size="14" font-style="italic" lengthAdjust="spacing" textLength="60" x="983.25" y="152.4999">Closeable</text><line style="stroke:#181818;stroke-width:0.5;" x1="887.5" x2="1106.5" y1="163.0679" y2="163.0679"/><line style="stroke:#181818;stroke-width:0.5;" x1="887.5" x2="1106.5" y1="171.0679" y2="171.0679"/><text fill="#000000" font-family="sans-serif" font-size="14" lengthAdjust="spacing" textLength="209" x="892.5" y="190.0339">void close() throws IOException</text></g><!--class RootNodeCtrl--><g id="elem_RootNodeCtrl"><rect codeLine="30" fill="#F1F1F1" height="181.4754" id="RootNodeCtrl" rx="2.5" ry="2.5" style="stroke:#181818;stroke-width:0.5;" width="491" x="928.5" y="336.5979"/><ellipse cx="1127.25" cy="352.5979" fill="#B4A7E5" rx="11" ry="11" style="stroke:#181818;stroke-width:1.0;"/><path d="M1123.2813,359.0979 L1123.2813,357.3948 L1125.6406,357.1292 L1125.6406,348.926 L1123.2813,348.6604 L1123.2813,346.9573 L1130.4219,346.9573 L1130.4219,348.6604 L1128,348.926 L1128,357.1292 L1130.4219,357.3948 L1130.4219,359.0979 L1123.2813,359.0979 Z " fill="#000000"/><text fill="#000000" font-family="sans-serif" font-size="14" font-style="italic" lengthAdjust="spacing" textLength="85" x="1147.75" y="358.0299">RootNodeCtrl</text><line style="stroke:#181818;stroke-width:0.5;" x1="929.5" x2="1418.5" y1="368.5979" y2="368.5979"/><line style="stroke:#181818;stroke-width:0.5;" x1="929.5" x2="1418.5" y1="376.5979" y2="376.5979"/><text fill="#000000" font-family="sans-serif" font-size="14" lengthAdjust="spacing" textLength="168" x="934.5" y="395.5639">NodeView getNodeView()</text><text fill="#000000" font-family="sans-serif" font-size="14" lengthAdjust="spacing" textLength="216" x="934.5" y="414.6318">PathSelection getPathSelection()</text><text fill="#000000" font-family="sans-serif" font-size="14" lengthAdjust="spacing" textLength="252" x="934.5" y="433.6997">void setExpanded(boolean expanded)</text><text fill="#000000" font-family="sans-serif" font-size="14" lengthAdjust="spacing" textLength="479" x="934.5" y="452.7676">NodeView expandPath(Path absolutePath, boolean expandLastElement)</text><text fill="#000000" font-family="sans-serif" font-size="14" lengthAdjust="spacing" textLength="118" x="934.5" y="471.8355">void updateTree()</text><text fill="#000000" font-family="sans-serif" font-size="14" lengthAdjust="spacing" textLength="249" x="934.5" y="490.9034">SortedSet&lt;Path&gt; getExpandedPaths()</text><text fill="#000000" font-family="sans-serif" font-size="14" lengthAdjust="spacing" textLength="305" x="934.5" y="509.9714">void setExpandedPaths(Iterable&lt;Path&gt; paths)</text></g><!--class PathView--><g id="elem_PathView"><rect codeLine="25" fill="#F1F1F1" height="86.1358" id="PathView" rx="2.5" ry="2.5" style="stroke:#181818;stroke-width:0.5;" width="141" x="1454.5" y="384.2679"/><ellipse cx="1492.45" cy="400.2679" fill="#B4A7E5" rx="11" ry="11" style="stroke:#181818;stroke-width:1.0;"/><path d="M1488.4813,406.7679 L1488.4813,405.0648 L1490.8406,404.7992 L1490.8406,396.596 L1488.4813,396.3304 L1488.4813,394.6273 L1495.6219,394.6273 L1495.6219,396.3304 L1493.2,396.596 L1493.2,404.7992 L1495.6219,405.0648 L1495.6219,406.7679 L1488.4813,406.7679 Z " fill="#000000"/><text fill="#000000" font-family="sans-serif" font-size="14" font-style="italic" lengthAdjust="spacing" textLength="58" x="1511.55" y="405.6999">PathView</text><line style="stroke:#181818;stroke-width:0.5;" x1="1455.5" x2="1594.5" y1="416.2679" y2="416.2679"/><line style="stroke:#181818;stroke-width:0.5;" x1="1455.5" x2="1594.5" y1="424.2679" y2="424.2679"/><ellipse cx="1465.5" cy="439.3019" fill="#84BE84" rx="3" ry="3" style="stroke:#038048;stroke-width:1.0;"/><text fill="#000000" font-family="sans-serif" font-size="14" lengthAdjust="spacing" textLength="94" x="1474.5" y="443.2339">Path getPath()</text><ellipse cx="1465.5" cy="458.3698" fill="#84BE84" rx="3" ry="3" style="stroke:#038048;stroke-width:1.0;"/><text fill="#000000" font-family="sans-serif" font-size="14" lengthAdjust="spacing" textLength="115" x="1474.5" y="462.3018">String getName()</text></g><!--class DirectoryEntry--><g id="elem_DirectoryEntry"><rect codeLine="43" fill="#F1F1F1" height="86.1358" id="DirectoryEntry" rx="2.5" ry="2.5" style="stroke:#181818;stroke-width:0.5;" width="326" x="571" y="578.0779"/><ellipse cx="684.25" cy="594.0779" fill="#A9DCDF" rx="11" ry="11" style="stroke:#181818;stroke-width:1.0;"/><path d="M679.4219,599.8279 L682.7656,587.6404 L685.9063,587.6404 L689.2813,599.8279 L686.8125,599.8279 L686.0781,596.8123 L682.5625,596.8123 L681.8125,599.8279 L679.4219,599.8279 Z M683.8281,591.781 L683.0781,594.781 L685.5938,594.781 L684.875,591.781 Q684.7344,591.2029 684.6094,590.656 Q684.4844,590.0935 684.3438,589.5154 Q684.2344,590.0935 684.0938,590.656 Q683.9531,591.2029 683.8281,591.781 Z " fill="#000000"/><text fill="#000000" font-family="sans-serif" font-size="14" font-style="italic" lengthAdjust="spacing" textLength="91" x="704.75" y="599.5099">DirectoryEntry</text><line style="stroke:#181818;stroke-width:0.5;" x1="572" x2="896" y1="610.0779" y2="610.0779"/><line style="stroke:#181818;stroke-width:0.5;" x1="572" x2="896" y1="618.0779" y2="618.0779"/><polygon fill="#4177AF" points="582,629.1119,578,635.1119,586,635.1119" style="stroke:#1963A0;stroke-width:1.0;"/><text fill="#000000" font-family="sans-serif" font-size="14" font-style="italic" lengthAdjust="spacing" textLength="144" x="591" y="637.0439">NodeCtrl getNodeCtrl()</text><ellipse cx="582" cy="652.1798" fill="#84BE84" rx="3" ry="3" style="stroke:#038048;stroke-width:1.0;"/><text fill="#000000" font-family="sans-serif" font-size="14" lengthAdjust="spacing" textLength="300" x="591" y="656.1118">void handleNodeExpansion(boolean expand)</text></g><!--class DirectoryEntryFileSystem--><g id="elem_DirectoryEntryFileSystem"><rect codeLine="49" fill="#F1F1F1" height="67.0679" id="DirectoryEntryFileSystem" rx="2.5" ry="2.5" style="stroke:#181818;stroke-width:0.5;" width="227" x="47.5" y="724.2079"/><ellipse cx="75.1" cy="740.2079" fill="#ADD1B2" rx="11" ry="11" style="stroke:#181818;stroke-width:1.0;"/><path d="M74.5688,747.1298 Q72.8188,747.1298 71.6781,746.3954 Q70.5531,745.6454 69.9906,744.3017 Q69.4438,742.9423 69.4438,741.1454 Q69.4438,739.1142 70.1,737.661 Q70.7563,736.2079 72.0375,735.4267 Q73.3188,734.6454 75.1938,734.6454 Q76.0844,734.6454 76.7563,734.8329 Q77.4281,735.0048 78.1156,735.3485 L77.3031,737.3642 Q76.6781,737.0517 76.1313,736.9267 Q75.6,736.8017 75.1156,736.8017 Q73.9438,736.8017 73.2406,737.3329 Q72.5375,737.8642 72.2406,738.8173 Q71.9438,739.7704 71.9438,741.036 Q71.9438,743.0517 72.6625,744.0204 Q73.3813,744.9735 74.975,744.9735 Q75.5688,744.9735 76.1938,744.8173 Q76.8188,744.661 77.6469,744.286 L77.6469,746.5048 Q76.9125,746.8173 76.1156,746.9735 Q75.3344,747.1298 74.5688,747.1298 Z " fill="#000000"/><text fill="#000000" font-family="sans-serif" font-size="14" lengthAdjust="spacing" textLength="167" x="91.9" y="745.6399">DirectoryEntryFileSystem</text><line style="stroke:#181818;stroke-width:0.5;" x1="48.5" x2="273.5" y1="756.2079" y2="756.2079"/><line style="stroke:#181818;stroke-width:0.5;" x1="48.5" x2="273.5" y1="764.2079" y2="764.2079"/><text fill="#000000" font-family="sans-serif" font-size="14" lengthAdjust="spacing" textLength="215" x="53.5" y="783.1739">NodeCtrlDirectory getNodeCtrl()</text></g><!--class DirectoryEntrySubDirectory--><g id="elem_DirectoryEntrySubDirectory"><rect codeLine="53" fill="#F1F1F1" height="67.0679" id="DirectoryEntrySubDirectory" rx="2.5" ry="2.5" style="stroke:#181818;stroke-width:0.5;" width="227" x="309.5" y="724.2079"/><ellipse cx="329.9" cy="740.2079" fill="#ADD1B2" rx="11" ry="11" style="stroke:#181818;stroke-width:1.0;"/><path d="M329.3688,747.1298 Q327.6188,747.1298 326.4781,746.3954 Q325.3531,745.6454 324.7906,744.3017 Q324.2438,742.9423 324.2438,741.1454 Q324.2438,739.1142 324.9,737.661 Q325.5563,736.2079 326.8375,735.4267 Q328.1188,734.6454 329.9938,734.6454 Q330.8844,734.6454 331.5563,734.8329 Q332.2281,735.0048 332.9156,735.3485 L332.1031,737.3642 Q331.4781,737.0517 330.9313,736.9267 Q330.4,736.8017 329.9156,736.8017 Q328.7438,736.8017 328.0406,737.3329 Q327.3375,737.8642 327.0406,738.8173 Q326.7438,739.7704 326.7438,741.036 Q326.7438,743.0517 327.4625,744.0204 Q328.1813,744.9735 329.775,744.9735 Q330.3688,744.9735 330.9938,744.8173 Q331.6188,744.661 332.4469,744.286 L332.4469,746.5048 Q331.7125,746.8173 330.9156,746.9735 Q330.1344,747.1298 329.3688,747.1298 Z " fill="#000000"/><text fill="#000000" font-family="sans-serif" font-size="14" lengthAdjust="spacing" textLength="183" x="345.1" y="745.6399">DirectoryEntrySubDirectory</text><line style="stroke:#181818;stroke-width:0.5;" x1="310.5" x2="535.5" y1="756.2079" y2="756.2079"/><line style="stroke:#181818;stroke-width:0.5;" x1="310.5" x2="535.5" y1="764.2079" y2="764.2079"/><text fill="#000000" font-family="sans-serif" font-size="14" lengthAdjust="spacing" textLength="215" x="315.5" y="783.1739">NodeCtrlDirectory getNodeCtrl()</text></g><!--class DirectoryEntryRegularFile--><g id="elem_DirectoryEntryRegularFile"><rect codeLine="57" fill="#F1F1F1" height="67.0679" id="DirectoryEntryRegularFile" rx="2.5" ry="2.5" style="stroke:#181818;stroke-width:0.5;" width="325" x="571.5" y="724.2079"/><ellipse cx="643.75" cy="740.2079" fill="#ADD1B2" rx="11" ry="11" style="stroke:#181818;stroke-width:1.0;"/><path d="M643.2188,747.1298 Q641.4688,747.1298 640.3281,746.3954 Q639.2031,745.6454 638.6406,744.3017 Q638.0938,742.9423 638.0938,741.1454 Q638.0938,739.1142 638.75,737.661 Q639.4063,736.2079 640.6875,735.4267 Q641.9688,734.6454 643.8438,734.6454 Q644.7344,734.6454 645.4063,734.8329 Q646.0781,735.0048 646.7656,735.3485 L645.9531,737.3642 Q645.3281,737.0517 644.7813,736.9267 Q644.25,736.8017 643.7656,736.8017 Q642.5938,736.8017 641.8906,737.3329 Q641.1875,737.8642 640.8906,738.8173 Q640.5938,739.7704 640.5938,741.036 Q640.5938,743.0517 641.3125,744.0204 Q642.0313,744.9735 643.625,744.9735 Q644.2188,744.9735 644.8438,744.8173 Q645.4688,744.661 646.2969,744.286 L646.2969,746.5048 Q645.5625,746.8173 644.7656,746.9735 Q643.9844,747.1298 643.2188,747.1298 Z " fill="#000000"/><text fill="#000000" font-family="sans-serif" font-size="14" lengthAdjust="spacing" textLength="172" x="664.25" y="745.6399">DirectoryEntryRegularFile</text><line style="stroke:#181818;stroke-width:0.5;" x1="572.5" x2="895.5" y1="756.2079" y2="756.2079"/><line style="stroke:#181818;stroke-width:0.5;" x1="572.5" x2="895.5" y1="764.2079" y2="764.2079"/><text fill="#000000" font-family="sans-serif" font-size="14" lengthAdjust="spacing" textLength="313" x="577.5" y="783.1739">NodeCtrlFileSystemRootsCustom getNodeCtrl()</text></g><!--class NodeCtrl--><g id="elem_NodeCtrl"><rect codeLine="61" fill="#F1F1F1" height="162.4075" id="NodeCtrl" rx="2.5" ry="2.5" style="stroke:#181818;stroke-width:0.5;" width="380" x="224" y="346.1279"/><ellipse cx="381.75" cy="362.1279" fill="#A9DCDF" rx="11" ry="11" style="stroke:#181818;stroke-width:1.0;"/><path d="M376.9219,367.8779 L380.2656,355.6904 L383.4063,355.6904 L386.7813,367.8779 L384.3125,367.8779 L383.5781,364.8623 L380.0625,364.8623 L379.3125,367.8779 L376.9219,367.8779 Z M381.3281,359.831 L380.5781,362.831 L383.0938,362.831 L382.375,359.831 Q382.2344,359.2529 382.1094,358.706 Q381.9844,358.1435 381.8438,357.5654 Q381.7344,358.1435 381.5938,358.706 Q381.4531,359.2529 381.3281,359.831 Z " fill="#000000"/><text fill="#000000" font-family="sans-serif" font-size="14" font-style="italic" lengthAdjust="spacing" textLength="56" x="402.25" y="367.5599">NodeCtrl</text><line style="stroke:#181818;stroke-width:0.5;" x1="225" x2="603" y1="378.1279" y2="378.1279"/><line style="stroke:#181818;stroke-width:0.5;" x1="225" x2="603" y1="386.1279" y2="386.1279"/><ellipse cx="235" cy="401.1619" fill="#84BE84" rx="3" ry="3" style="stroke:#038048;stroke-width:1.0;"/><text fill="#000000" font-family="sans-serif" font-size="14" lengthAdjust="spacing" textLength="168" x="244" y="405.0939">NodeView getNodeView()</text><polygon fill="#4177AF" points="235,416.2298,231,422.2298,239,422.2298" style="stroke:#1963A0;stroke-width:1.0;"/><text fill="#000000" font-family="sans-serif" font-size="14" lengthAdjust="spacing" textLength="226" x="244" y="424.1618">DirectoryEntry getDirectoryEntry()</text><polygon fill="#4177AF" points="235,435.2977,231,441.2977,239,441.2977" style="stroke:#1963A0;stroke-width:1.0;"/><text fill="#000000" font-family="sans-serif" font-size="14" lengthAdjust="spacing" textLength="172" x="244" y="443.2297">SubNodes getSubNodes()</text><polygon fill="#4177AF" points="235,454.3656,231,460.3656,239,460.3656" style="stroke:#1963A0;stroke-width:1.0;"/><text fill="#000000" font-family="sans-serif" font-size="14" lengthAdjust="spacing" textLength="194" x="244" y="462.2976">NodeConfig getNodeConfig()</text><polygon fill="#4177AF" points="235,473.4335,231,479.4335,239,479.4335" style="stroke:#1963A0;stroke-width:1.0;"/><text fill="#000000" font-family="sans-serif" font-size="14" lengthAdjust="spacing" textLength="354" x="244" y="481.3655">UserNodeConfiguration getUserNodeConfiguration()</text><polygon fill="#4177AF" points="235,492.5015,231,498.5015,239,498.5015" style="stroke:#1963A0;stroke-width:1.0;"/><text fill="#000000" font-family="sans-serif" font-size="14" font-style="italic" lengthAdjust="spacing" textLength="184" x="244" y="500.4334">void updateDirectoryEntries()</text></g><!--class SubNodes--><g id="elem_SubNodes"><rect fill="#F1F1F1" height="48" id="SubNodes" rx="2.5" ry="2.5" style="stroke:#181818;stroke-width:0.5;" width="101" x="156.5" y="597.1379"/><ellipse cx="171.5" cy="613.1379" fill="#ADD1B2" rx="11" ry="11" style="stroke:#181818;stroke-width:1.0;"/><path d="M170.9688,620.0598 Q169.2188,620.0598 168.0781,619.3254 Q166.9531,618.5754 166.3906,617.2317 Q165.8438,615.8723 165.8438,614.0754 Q165.8438,612.0442 166.5,610.591 Q167.1563,609.1379 168.4375,608.3567 Q169.7188,607.5754 171.5938,607.5754 Q172.4844,607.5754 173.1563,607.7629 Q173.8281,607.9348 174.5156,608.2785 L173.7031,610.2942 Q173.0781,609.9817 172.5313,609.8567 Q172,609.7317 171.5156,609.7317 Q170.3438,609.7317 169.6406,610.2629 Q168.9375,610.7942 168.6406,611.7473 Q168.3438,612.7004 168.3438,613.966 Q168.3438,615.9817 169.0625,616.9504 Q169.7813,617.9035 171.375,617.9035 Q171.9688,617.9035 172.5938,617.7473 Q173.2188,617.591 174.0469,617.216 L174.0469,619.4348 Q173.3125,619.7473 172.5156,619.9035 Q171.7344,620.0598 170.9688,620.0598 Z " fill="#000000"/><text fill="#000000" font-family="sans-serif" font-size="14" lengthAdjust="spacing" textLength="69" x="185.5" y="618.5699">SubNodes</text><line style="stroke:#181818;stroke-width:0.5;" x1="157.5" x2="256.5" y1="629.1379" y2="629.1379"/><line style="stroke:#181818;stroke-width:0.5;" x1="157.5" x2="256.5" y1="637.1379" y2="637.1379"/></g><!--class NodeCtrlFileSystemRootsGlobal--><g id="elem_NodeCtrlFileSystemRootsGlobal"><rect codeLine="73" fill="#F1F1F1" height="67.0679" id="NodeCtrlFileSystemRootsGlobal" rx="2.5" ry="2.5" style="stroke:#181818;stroke-width:0.5;" width="243" x="292.5" y="587.6079"/><ellipse cx="307.5" cy="603.6079" fill="#ADD1B2" rx="11" ry="11" style="stroke:#181818;stroke-width:1.0;"/><path d="M306.9688,610.5298 Q305.2188,610.5298 304.0781,609.7954 Q302.9531,609.0454 302.3906,607.7017 Q301.8438,606.3423 301.8438,604.5454 Q301.8438,602.5142 302.5,601.061 Q303.1563,599.6079 304.4375,598.8267 Q305.7188,598.0454 307.5938,598.0454 Q308.4844,598.0454 309.1563,598.2329 Q309.8281,598.4048 310.5156,598.7485 L309.7031,600.7642 Q309.0781,600.4517 308.5313,600.3267 Q308,600.2017 307.5156,600.2017 Q306.3438,600.2017 305.6406,600.7329 Q304.9375,601.2642 304.6406,602.2173 Q304.3438,603.1704 304.3438,604.436 Q304.3438,606.4517 305.0625,607.4204 Q305.7813,608.3735 307.375,608.3735 Q307.9688,608.3735 308.5938,608.2173 Q309.2188,608.061 310.0469,607.686 L310.0469,609.9048 Q309.3125,610.2173 308.5156,610.3735 Q307.7344,610.5298 306.9688,610.5298 Z " fill="#000000"/><text fill="#000000" font-family="sans-serif" font-size="14" lengthAdjust="spacing" textLength="211" x="321.5" y="609.0399">NodeCtrlFileSystemRootsGlobal</text><line style="stroke:#181818;stroke-width:0.5;" x1="293.5" x2="534.5" y1="619.6079" y2="619.6079"/><line style="stroke:#181818;stroke-width:0.5;" x1="293.5" x2="534.5" y1="627.6079" y2="627.6079"/><polygon fill="#4177AF" points="303.5,638.6419,299.5,644.6419,307.5,644.6419" style="stroke:#1963A0;stroke-width:1.0;"/><text fill="#000000" font-family="sans-serif" font-size="14" lengthAdjust="spacing" textLength="196" x="312.5" y="646.5739">void updateDirectoryEntries()</text></g><!--class WatchServiceCtrl--><g id="elem_WatchServiceCtrl"><rect codeLine="77" fill="#F1F1F1" height="48" id="WatchServiceCtrl" rx="2.5" ry="2.5" style="stroke:#181818;stroke-width:0.5;" width="146" x="748" y="403.3379"/><ellipse cx="763" cy="419.3379" fill="#ADD1B2" rx="11" ry="11" style="stroke:#181818;stroke-width:1.0;"/><path d="M762.4688,426.2598 Q760.7188,426.2598 759.5781,425.5254 Q758.4531,424.7754 757.8906,423.4317 Q757.3438,422.0723 757.3438,420.2754 Q757.3438,418.2442 758,416.791 Q758.6563,415.3379 759.9375,414.5567 Q761.2188,413.7754 763.0938,413.7754 Q763.9844,413.7754 764.6563,413.9629 Q765.3281,414.1348 766.0156,414.4785 L765.2031,416.4942 Q764.5781,416.1817 764.0313,416.0567 Q763.5,415.9317 763.0156,415.9317 Q761.8438,415.9317 761.1406,416.4629 Q760.4375,416.9942 760.1406,417.9473 Q759.8438,418.9004 759.8438,420.166 Q759.8438,422.1817 760.5625,423.1504 Q761.2813,424.1035 762.875,424.1035 Q763.4688,424.1035 764.0938,423.9473 Q764.7188,423.791 765.5469,423.416 L765.5469,425.6348 Q764.8125,425.9473 764.0156,426.1035 Q763.2344,426.2598 762.4688,426.2598 Z " fill="#000000"/><text fill="#000000" font-family="sans-serif" font-size="14" lengthAdjust="spacing" textLength="114" x="777" y="424.7699">WatchServiceCtrl</text><line style="stroke:#181818;stroke-width:0.5;" x1="749" x2="893" y1="435.3379" y2="435.3379"/><line style="stroke:#181818;stroke-width:0.5;" x1="749" x2="893" y1="443.3379" y2="443.3379"/></g><!--reverse link Closeable to RootNodeCtrl--><g id="link_Closeable_RootNodeCtrl"><path d="M1029.5269,213.5126 C1052.9169,247.9826 1080.52,288.6379 1112.84,336.2379 " fill="none" id="Closeable-backto-RootNodeCtrl" style="stroke:#181818;stroke-width:1.0;"/><polygon fill="none" points="1019.42,198.6179,1024.562,216.8815,1034.4918,210.1436,1019.42,198.6179" style="stroke:#181818;stroke-width:1.0;"/></g><!--reverse link PathView to DirectoryEntry--><g id="link_PathView_DirectoryEntry"><path d="M1482.0936,484.2124 C1466.9236,501.7224 1458.99,506.9179 1437,518.0779 C1345.31,564.6079 1074.8,593.8279 897.33,608.5479 " fill="none" id="PathView-backto-DirectoryEntry" style="stroke:#181818;stroke-width:1.0;stroke-dasharray:7.0,7.0;"/><polygon fill="none" points="1493.88,470.6079,1477.5588,480.2836,1486.6284,488.1412,1493.88,470.6079" style="stroke:#181818;stroke-width:1.0;"/></g><!--reverse link DirectoryEntry to DirectoryEntryFileSystem--><g id="link_DirectoryEntry_DirectoryEntryFileSystem"><path d="M553.1774,664.1832 C547.1974,665.5732 558.81,662.8679 553,664.2079 C437.03,691.0179 407.76,696.5279 292,724.2079 C286.42,725.5479 280.7,726.9179 274.93,728.3179 " fill="none" id="DirectoryEntry-backto-DirectoryEntryFileSystem" style="stroke:#181818;stroke-width:1.0;"/><polygon fill="none" points="570.71,660.1079,551.819,658.339,554.5358,670.0274,570.71,660.1079" style="stroke:#181818;stroke-width:1.0;"/></g><!--reverse link DirectoryEntry to DirectoryEntrySubDirectory--><g id="link_DirectoryEntry_DirectoryEntrySubDirectory"><path d="M619.501,671.698 C575.351,690.808 540.51,705.8879 499.28,723.7279 " fill="none" id="DirectoryEntry-backto-DirectoryEntrySubDirectory" style="stroke:#181818;stroke-width:1.0;"/><polygon fill="none" points="636.02,664.5479,617.1177,666.1917,621.8844,677.2043,636.02,664.5479" style="stroke:#181818;stroke-width:1.0;"/></g><!--reverse link DirectoryEntry to DirectoryEntryRegularFile--><g id="link_DirectoryEntry_DirectoryEntryRegularFile"><path d="M734,682.3579 C734,701.6379 734,706.1179 734,724.0679 " fill="none" id="DirectoryEntry-backto-DirectoryEntryRegularFile" style="stroke:#181818;stroke-width:1.0;"/><polygon fill="none" points="734,664.3579,728,682.3579,740,682.3579,734,664.3579" style="stroke:#181818;stroke-width:1.0;"/></g><!--link NodeCtrl to DirectoryEntry--><g id="link_NodeCtrl_DirectoryEntry"><path codeLine="70" d="M548.32,508.8479 C587.83,532.5279 624.3336,554.4134 658.1536,574.6834 " fill="none" id="NodeCtrl-to-DirectoryEntry" style="stroke:#181818;stroke-width:1.0;"/><polygon fill="#181818" points="663.3,577.7679,657.6367,569.7102,659.0113,575.1975,653.524,576.5721,663.3,577.7679" style="stroke:#181818;stroke-width:1.0;"/></g><!--link NodeCtrl to SubNodes--><g id="link_NodeCtrl_SubNodes"><path codeLine="71" d="M327.11,508.8479 C292.81,540.6279 260.422,570.6509 236.722,592.6009 " fill="none" id="NodeCtrl-to-SubNodes" style="stroke:#181818;stroke-width:1.0;"/><polygon fill="#181818" points="232.32,596.6779,241.6411,593.4971,235.9884,593.2804,236.2051,587.6277,232.32,596.6779" style="stroke:#181818;stroke-width:1.0;"/></g><!--reverse link NodeCtrl to NodeCtrlFileSystemRootsGlobal--><g id="link_NodeCtrl_NodeCtrlFileSystemRootsGlobal"><path d="M414,526.8479 C414,554.3179 414,565.5279 414,587.1279 " fill="none" id="NodeCtrl-backto-NodeCtrlFileSystemRootsGlobal" style="stroke:#181818;stroke-width:1.0;"/><polygon fill="none" points="414,508.8479,408,526.8479,420,526.8479,414,508.8479" style="stroke:#181818;stroke-width:1.0;"/></g><!--reverse link RootNodeCtrl to NodeCtrlFileSystemRootsGlobal--><g id="link_RootNodeCtrl_NodeCtrlFileSystemRootsGlobal"><path d="M910.7069,518.8 C753.4669,558.64 710.95,541.1679 553,578.0779 C541.46,580.7679 529.47,583.8979 517.59,587.1979 " fill="none" id="RootNodeCtrl-backto-NodeCtrlFileSystemRootsGlobal" style="stroke:#181818;stroke-width:1.0;stroke-dasharray:7.0,7.0;"/><polygon fill="none" points="928.09,514.1279,909.1496,513.0057,912.2643,524.5944,928.09,514.1279" style="stroke:#181818;stroke-width:1.0;"/></g><!--reverse link Closeable to WatchServiceCtrl--><g id="link_Closeable_WatchServiceCtrl"><path d="M938.6068,210.0068 C920.0268,225.3668 913.16,233.3679 898,254.1279 C863.04,301.9979 839.02,368.2679 827.95,402.9779 " fill="none" id="Closeable-backto-WatchServiceCtrl" style="stroke:#181818;stroke-width:1.0;stroke-dasharray:7.0,7.0;"/><polygon fill="none" points="952.48,198.5379,934.7839,205.3824,942.4298,214.6312,952.48,198.5379" style="stroke:#181818;stroke-width:1.0;"/></g><!--SRC=[jLHDZzem43sJNs6f5r0BKYlrLgtKfMo5L6qhictFasGsk1WxjISi2B6_lHxdYsH1sajFSTvuvhsPPzjjf2x0mbQG98NY68rkZStGhaofixcn6gru_x517zOotMXqJdpm4AIRt5RxbB7YyzyIfdF8a6vLYT4fYbnRlV1x8SUO3fxapYCOHHNZdLGO7npXzi4Y_fBu9BJ9KD2XG1T5TQBu0pkOIUC5HYEf2UqZf2ZcoZY4f18-sXcPYPIXyKJGsfed9vRV5_iK2v96HwCJYseg9k1Gl5dkZ3qCggwCeNklOKvMzG8_WDP18REz3RyYH-BlU1AWcApKEOFtlaS6JrTB2zmJwimrlStwtV2sGCR5wdLWOReO5QRSLCFV0c5Bc8H3MkmBq1bcuyGOXQ0zPGLCpWagC7GHMeB46LKIyiyxqK_z1euM2hUegIKgYmm8sRv07XjBcCL8dxZ03IjiT33WBYgi8ai_9nv0dLamEBdWsopb-R5hNYjPICdx3lvOVf7MZy5Rkj3aVPNRejBgghGp0xs6OvDy4i-YTQKUDwzhKuFMjPUfa2D1ikDHzqTJctr9I7V8MzC7IXl7cROD3RLSAn-NIPVpFmXMc9SABBVnclfTktpUtRnqPBQNk0RkjHw4-tNr0ZmFkVs6Fb9lytFXHCSRcdKT2bH6FygyrHN-wl1FXxO3ImlDNRiO24czqtHsBthAP2M0Us-RdKvl1WqDWetqrfmhS_wgJ0BTizBM6Dw2tYDq3Fs-Gcz5_HiezO-DtSdqHV4NxvY_jly0]--></g></svg>