<?xml version="1.0" encoding="us-ascii" standalone="no"?><svg xmlns="http://www.w3.org/2000/svg" xmlns:xlink="http://www.w3.org/1999/xlink" contentStyleType="text/css" height="943px" preserveAspectRatio="none" style="width:1940px;height:943px;background:#FFFFFF;" version="1.1" viewBox="0 0 1940 943" width="1940px" zoomAndPan="magnify"><defs><linearGradient id="g10c60y57wcm7o0" x1="50%" x2="50%" y1="0%" y2="100%"><stop offset="0%" stop-color="#00FFFF"/><stop offset="100%" stop-color="#5F9EA0"/></linearGradient></defs><g><rect fill="url(#g10c60y57wcm7o0)" height="29.0679" id="_title" rx="7.5" ry="7.5" style="stroke:none;stroke-width:2.0;" width="229" x="848.5" y="5"/><text fill="#000000" font-family="sans-serif" font-size="14" font-weight="bold" lengthAdjust="spacing" textLength="219" x="853.5" y="24.9659">FileSystemTreeView node types</text><!--cluster base--><g id="cluster_base"><rect fill="#FFFFF0" height="890.15" rx="2.5" ry="2.5" style="stroke:#000000;stroke-width:1.5;" width="1927" x="7" y="47.0679"/><path d="M49,47.0679 L49,59.1358 L39,69.1358 L7,69.1358 " fill="none" style="stroke:#000000;stroke-width:1.5;"/><text fill="#000000" font-family="sans-serif" font-size="14" font-weight="bold" lengthAdjust="spacing" textLength="32" x="10" y="63.0339">base</text></g><!--cluster ctrl--><g id="cluster_ctrl"><rect fill="none" height="689.88" rx="2.5" ry="2.5" style="stroke:#000000;stroke-width:1.5;" width="1189" x="721" y="223.3379"/><path d="M754,223.3379 L754,235.4058 L744,245.4058 L721,245.4058 " fill="none" style="stroke:#000000;stroke-width:1.5;"/><text fill="#000000" font-family="sans-serif" font-size="14" font-weight="bold" lengthAdjust="spacing" textLength="23" x="724" y="239.3039">ctrl</text></g><!--class PathView--><g id="elem_PathView"><rect codeLine="25" fill="#F1F1F1" height="86.1358" id="PathView" rx="2.5" ry="2.5" style="stroke:#181818;stroke-width:0.5;" width="141" x="556.5" y="259.7979"/><ellipse cx="594.45" cy="275.7979" fill="#A9DCDF" rx="11" ry="11" style="stroke:#181818;stroke-width:1.0;"/><path d="M589.6219,281.5479 L592.9656,269.3604 L596.1063,269.3604 L599.4813,281.5479 L597.0125,281.5479 L596.2781,278.5323 L592.7625,278.5323 L592.0125,281.5479 L589.6219,281.5479 Z M594.0281,273.501 L593.2781,276.501 L595.7938,276.501 L595.075,273.501 Q594.9344,272.9229 594.8094,272.376 Q594.6844,271.8135 594.5438,271.2354 Q594.4344,271.8135 594.2938,272.376 Q594.1531,272.9229 594.0281,273.501 Z " fill="#000000"/><text fill="#000000" font-family="sans-serif" font-size="14" font-style="italic" lengthAdjust="spacing" textLength="58" x="613.55" y="281.2299">PathView</text><line style="stroke:#181818;stroke-width:0.5;" x1="557.5" x2="696.5" y1="291.7979" y2="291.7979"/><line style="stroke:#181818;stroke-width:0.5;" x1="557.5" x2="696.5" y1="299.7979" y2="299.7979"/><ellipse cx="567.5" cy="314.8319" fill="#84BE84" rx="3" ry="3" style="stroke:#038048;stroke-width:1.0;"/><text fill="#000000" font-family="sans-serif" font-size="14" lengthAdjust="spacing" textLength="94" x="576.5" y="318.7639">Path getPath()</text><ellipse cx="567.5" cy="333.8998" fill="#84BE84" rx="3" ry="3" style="stroke:#038048;stroke-width:1.0;"/><text fill="#000000" font-family="sans-serif" font-size="14" lengthAdjust="spacing" textLength="115" x="576.5" y="337.8318">String getName()</text></g><!--class RootNodeCtrl--><g id="elem_RootNodeCtrl"><rect codeLine="30" fill="#F1F1F1" height="181.4754" id="RootNodeCtrl" rx="2.5" ry="2.5" style="stroke:#181818;stroke-width:0.5;" width="491" x="30.5" y="212.1279"/><ellipse cx="229.25" cy="228.1279" fill="#B4A7E5" rx="11" ry="11" style="stroke:#181818;stroke-width:1.0;"/><path d="M225.2813,234.6279 L225.2813,232.9248 L227.6406,232.6592 L227.6406,224.456 L225.2813,224.1904 L225.2813,222.4873 L232.4219,222.4873 L232.4219,224.1904 L230,224.456 L230,232.6592 L232.4219,232.9248 L232.4219,234.6279 L225.2813,234.6279 Z " fill="#000000"/><text fill="#000000" font-family="sans-serif" font-size="14" font-style="italic" lengthAdjust="spacing" textLength="85" x="249.75" y="233.5599">RootNodeCtrl</text><line style="stroke:#181818;stroke-width:0.5;" x1="31.5" x2="520.5" y1="244.1279" y2="244.1279"/><line style="stroke:#181818;stroke-width:0.5;" x1="31.5" x2="520.5" y1="252.1279" y2="252.1279"/><text fill="#000000" font-family="sans-serif" font-size="14" lengthAdjust="spacing" textLength="168" x="36.5" y="271.0939">NodeView getNodeView()</text><text fill="#000000" font-family="sans-serif" font-size="14" lengthAdjust="spacing" textLength="216" x="36.5" y="290.1618">PathSelection getPathSelection()</text><text fill="#000000" font-family="sans-serif" font-size="14" lengthAdjust="spacing" textLength="252" x="36.5" y="309.2297">void setExpanded(boolean expanded)</text><text fill="#000000" font-family="sans-serif" font-size="14" lengthAdjust="spacing" textLength="479" x="36.5" y="328.2976">NodeView expandPath(Path absolutePath, boolean expandLastElement)</text><text fill="#000000" font-family="sans-serif" font-size="14" lengthAdjust="spacing" textLength="118" x="36.5" y="347.3655">void updateTree()</text><text fill="#000000" font-family="sans-serif" font-size="14" lengthAdjust="spacing" textLength="249" x="36.5" y="366.4334">SortedSet&lt;Path&gt; getExpandedPaths()</text><text fill="#000000" font-family="sans-serif" font-size="14" lengthAdjust="spacing" textLength="305" x="36.5" y="385.5014">void setExpandedPaths(Iterable&lt;Path&gt; paths)</text></g><!--class Closeable--><g id="elem_Closeable"><rect codeLine="21" fill="#F1F1F1" height="67.0679" id="Closeable" rx="2.5" ry="2.5" style="stroke:#181818;stroke-width:0.5;" width="221" x="165.5" y="85.0679"/><ellipse cx="218.25" cy="101.0679" fill="#B4A7E5" rx="11" ry="11" style="stroke:#181818;stroke-width:1.0;"/><path d="M214.2813,107.5679 L214.2813,105.8648 L216.6406,105.5992 L216.6406,97.396 L214.2813,97.1304 L214.2813,95.4273 L221.4219,95.4273 L221.4219,97.1304 L219,97.396 L219,105.5992 L221.4219,105.8648 L221.4219,107.5679 L214.2813,107.5679 Z " fill="#000000"/><text fill="#000000" font-family="sans-serif" font-size="14" font-style="italic" lengthAdjust="spacing" textLength="107" x="238.75" y="106.4999">java.io.Closeable</text><line style="stroke:#181818;stroke-width:0.5;" x1="166.5" x2="385.5" y1="117.0679" y2="117.0679"/><line style="stroke:#181818;stroke-width:0.5;" x1="166.5" x2="385.5" y1="125.0679" y2="125.0679"/><text fill="#000000" font-family="sans-serif" font-size="14" lengthAdjust="spacing" textLength="209" x="171.5" y="144.0339">void close() throws IOException</text></g><!--class NodeCtrl--><g id="elem_NodeCtrl"><rect codeLine="74" fill="#F1F1F1" height="162.4075" id="NodeCtrl" rx="2.5" ry="2.5" style="stroke:#181818;stroke-width:0.5;" width="380" x="1357" y="453.6079"/><ellipse cx="1514.75" cy="469.6079" fill="#A9DCDF" rx="11" ry="11" style="stroke:#181818;stroke-width:1.0;"/><path d="M1509.9219,475.3579 L1513.2656,463.1704 L1516.4063,463.1704 L1519.7813,475.3579 L1517.3125,475.3579 L1516.5781,472.3423 L1513.0625,472.3423 L1512.3125,475.3579 L1509.9219,475.3579 Z M1514.3281,467.311 L1513.5781,470.311 L1516.0938,470.311 L1515.375,467.311 Q1515.2344,466.7329 1515.1094,466.186 Q1514.9844,465.6235 1514.8438,465.0454 Q1514.7344,465.6235 1514.5938,466.186 Q1514.4531,466.7329 1514.3281,467.311 Z " fill="#000000"/><text fill="#000000" font-family="sans-serif" font-size="14" font-style="italic" lengthAdjust="spacing" textLength="56" x="1535.25" y="475.0399">NodeCtrl</text><line style="stroke:#181818;stroke-width:0.5;" x1="1358" x2="1736" y1="485.6079" y2="485.6079"/><line style="stroke:#181818;stroke-width:0.5;" x1="1358" x2="1736" y1="493.6079" y2="493.6079"/><ellipse cx="1368" cy="508.6419" fill="#84BE84" rx="3" ry="3" style="stroke:#038048;stroke-width:1.0;"/><text fill="#000000" font-family="sans-serif" font-size="14" lengthAdjust="spacing" textLength="168" x="1377" y="512.5739">NodeView getNodeView()</text><polygon fill="#4177AF" points="1368,523.7098,1364,529.7098,1372,529.7098" style="stroke:#1963A0;stroke-width:1.0;"/><text fill="#000000" font-family="sans-serif" font-size="14" lengthAdjust="spacing" textLength="226" x="1377" y="531.6418">DirectoryEntry getDirectoryEntry()</text><polygon fill="#4177AF" points="1368,542.7777,1364,548.7777,1372,548.7777" style="stroke:#1963A0;stroke-width:1.0;"/><text fill="#000000" font-family="sans-serif" font-size="14" lengthAdjust="spacing" textLength="172" x="1377" y="550.7097">SubNodes getSubNodes()</text><polygon fill="#4177AF" points="1368,561.8456,1364,567.8456,1372,567.8456" style="stroke:#1963A0;stroke-width:1.0;"/><text fill="#000000" font-family="sans-serif" font-size="14" lengthAdjust="spacing" textLength="194" x="1377" y="569.7776">NodeConfig getNodeConfig()</text><polygon fill="#4177AF" points="1368,580.9135,1364,586.9135,1372,586.9135" style="stroke:#1963A0;stroke-width:1.0;"/><text fill="#000000" font-family="sans-serif" font-size="14" lengthAdjust="spacing" textLength="354" x="1377" y="588.8455">UserNodeConfiguration getUserNodeConfiguration()</text><polygon fill="#4177AF" points="1368,599.9815,1364,605.9815,1372,605.9815" style="stroke:#1963A0;stroke-width:1.0;"/><text fill="#000000" font-family="sans-serif" font-size="14" font-style="italic" lengthAdjust="spacing" textLength="184" x="1377" y="607.9134">void updateDirectoryEntries()</text></g><!--class NodeCtrlFileSystemRoots--><g id="elem_NodeCtrlFileSystemRoots"><rect codeLine="85" fill="#F1F1F1" height="67.0679" id="NodeCtrlFileSystemRoots" rx="2.5" ry="2.5" style="stroke:#181818;stroke-width:0.5;" width="202" x="1446" y="676.0179"/><ellipse cx="1466.85" cy="692.0179" fill="#A9DCDF" rx="11" ry="11" style="stroke:#181818;stroke-width:1.0;"/><path d="M1462.0219,697.7679 L1465.3656,685.5804 L1468.5063,685.5804 L1471.8813,697.7679 L1469.4125,697.7679 L1468.6781,694.7523 L1465.1625,694.7523 L1464.4125,697.7679 L1462.0219,697.7679 Z M1466.4281,689.721 L1465.6781,692.721 L1468.1938,692.721 L1467.475,689.721 Q1467.3344,689.1429 1467.2094,688.596 Q1467.0844,688.0335 1466.9438,687.4554 Q1466.8344,688.0335 1466.6938,688.596 Q1466.5531,689.1429 1466.4281,689.721 Z " fill="#000000"/><text fill="#000000" font-family="sans-serif" font-size="14" font-style="italic" lengthAdjust="spacing" textLength="157" x="1482.15" y="697.4499">NodeCtrlFileSystemRoots</text><line style="stroke:#181818;stroke-width:0.5;" x1="1447" x2="1647" y1="708.0179" y2="708.0179"/><line style="stroke:#181818;stroke-width:0.5;" x1="1447" x2="1647" y1="716.0179" y2="716.0179"/><polygon fill="#4177AF" points="1457,727.0519,1453,733.0519,1461,733.0519" style="stroke:#1963A0;stroke-width:1.0;"/><text fill="#000000" font-family="sans-serif" font-size="14" lengthAdjust="spacing" textLength="176" x="1466" y="734.9839">FileSystem getFileSystem()</text></g><!--class NodeCtrlDirectory--><g id="elem_NodeCtrlDirectory"><rect codeLine="89" fill="#F1F1F1" height="67.0679" id="NodeCtrlDirectory" rx="2.5" ry="2.5" style="stroke:#181818;stroke-width:0.5;" width="222" x="1396" y="269.3379"/><ellipse cx="1442.25" cy="285.3379" fill="#ADD1B2" rx="11" ry="11" style="stroke:#181818;stroke-width:1.0;"/><path d="M1441.7188,292.2598 Q1439.9688,292.2598 1438.8281,291.5254 Q1437.7031,290.7754 1437.1406,289.4317 Q1436.5938,288.0723 1436.5938,286.2754 Q1436.5938,284.2442 1437.25,282.791 Q1437.9063,281.3379 1439.1875,280.5567 Q1440.4688,279.7754 1442.3438,279.7754 Q1443.2344,279.7754 1443.9063,279.9629 Q1444.5781,280.1348 1445.2656,280.4785 L1444.4531,282.4942 Q1443.8281,282.1817 1443.2813,282.0567 Q1442.75,281.9317 1442.2656,281.9317 Q1441.0938,281.9317 1440.3906,282.4629 Q1439.6875,282.9942 1439.3906,283.9473 Q1439.0938,284.9004 1439.0938,286.166 Q1439.0938,288.1817 1439.8125,289.1504 Q1440.5313,290.1035 1442.125,290.1035 Q1442.7188,290.1035 1443.3438,289.9473 Q1443.9688,289.791 1444.7969,289.416 L1444.7969,291.6348 Q1444.0625,291.9473 1443.2656,292.1035 Q1442.4844,292.2598 1441.7188,292.2598 Z " fill="#000000"/><text fill="#000000" font-family="sans-serif" font-size="14" lengthAdjust="spacing" textLength="121" x="1462.75" y="290.7699">NodeCtrlDirectory</text><line style="stroke:#181818;stroke-width:0.5;" x1="1397" x2="1617" y1="301.3379" y2="301.3379"/><line style="stroke:#181818;stroke-width:0.5;" x1="1397" x2="1617" y1="309.3379" y2="309.3379"/><polygon fill="#4177AF" points="1407,320.3719,1403,326.3719,1411,326.3719" style="stroke:#1963A0;stroke-width:1.0;"/><text fill="#000000" font-family="sans-serif" font-size="14" lengthAdjust="spacing" textLength="196" x="1416" y="328.3039">void updateDirectoryEntries()</text></g><!--class NodeCtrlFileSystemRootsGlobal--><g id="elem_NodeCtrlFileSystemRootsGlobal"><rect codeLine="95" fill="#F1F1F1" height="67.0679" id="NodeCtrlFileSystemRootsGlobal" rx="2.5" ry="2.5" style="stroke:#181818;stroke-width:0.5;" width="243" x="1357.5" y="812.6179"/><ellipse cx="1372.5" cy="828.6179" fill="#ADD1B2" rx="11" ry="11" style="stroke:#181818;stroke-width:1.0;"/><path d="M1371.9688,835.5398 Q1370.2188,835.5398 1369.0781,834.8054 Q1367.9531,834.0554 1367.3906,832.7117 Q1366.8438,831.3523 1366.8438,829.5554 Q1366.8438,827.5242 1367.5,826.071 Q1368.1563,824.6179 1369.4375,823.8367 Q1370.7188,823.0554 1372.5938,823.0554 Q1373.4844,823.0554 1374.1563,823.2429 Q1374.8281,823.4148 1375.5156,823.7585 L1374.7031,825.7742 Q1374.0781,825.4617 1373.5313,825.3367 Q1373,825.2117 1372.5156,825.2117 Q1371.3438,825.2117 1370.6406,825.7429 Q1369.9375,826.2742 1369.6406,827.2273 Q1369.3438,828.1804 1369.3438,829.446 Q1369.3438,831.4617 1370.0625,832.4304 Q1370.7813,833.3835 1372.375,833.3835 Q1372.9688,833.3835 1373.5938,833.2273 Q1374.2188,833.071 1375.0469,832.696 L1375.0469,834.9148 Q1374.3125,835.2273 1373.5156,835.3835 Q1372.7344,835.5398 1371.9688,835.5398 Z " fill="#000000"/><text fill="#000000" font-family="sans-serif" font-size="14" lengthAdjust="spacing" textLength="211" x="1386.5" y="834.0499">NodeCtrlFileSystemRootsGlobal</text><line style="stroke:#181818;stroke-width:0.5;" x1="1358.5" x2="1599.5" y1="844.6179" y2="844.6179"/><line style="stroke:#181818;stroke-width:0.5;" x1="1358.5" x2="1599.5" y1="852.6179" y2="852.6179"/><polygon fill="#4177AF" points="1368.5,863.6519,1364.5,869.6519,1372.5,869.6519" style="stroke:#1963A0;stroke-width:1.0;"/><text fill="#000000" font-family="sans-serif" font-size="14" lengthAdjust="spacing" textLength="196" x="1377.5" y="871.5839">void updateDirectoryEntries()</text></g><!--class NodeCtrlFileSystemRootsCustom--><g id="elem_NodeCtrlFileSystemRootsCustom"><rect codeLine="99" fill="#F1F1F1" height="86.1358" id="NodeCtrlFileSystemRootsCustom" rx="2.5" ry="2.5" style="stroke:#181818;stroke-width:0.5;" width="251" x="1635.5" y="803.0779"/><ellipse cx="1650.5" cy="819.0779" fill="#ADD1B2" rx="11" ry="11" style="stroke:#181818;stroke-width:1.0;"/><path d="M1649.9688,825.9998 Q1648.2188,825.9998 1647.0781,825.2654 Q1645.9531,824.5154 1645.3906,823.1717 Q1644.8438,821.8123 1644.8438,820.0154 Q1644.8438,817.9842 1645.5,816.531 Q1646.1563,815.0779 1647.4375,814.2967 Q1648.7188,813.5154 1650.5938,813.5154 Q1651.4844,813.5154 1652.1563,813.7029 Q1652.8281,813.8748 1653.5156,814.2185 L1652.7031,816.2342 Q1652.0781,815.9217 1651.5313,815.7967 Q1651,815.6717 1650.5156,815.6717 Q1649.3438,815.6717 1648.6406,816.2029 Q1647.9375,816.7342 1647.6406,817.6873 Q1647.3438,818.6404 1647.3438,819.906 Q1647.3438,821.9217 1648.0625,822.8904 Q1648.7813,823.8435 1650.375,823.8435 Q1650.9688,823.8435 1651.5938,823.6873 Q1652.2188,823.531 1653.0469,823.156 L1653.0469,825.3748 Q1652.3125,825.6873 1651.5156,825.8435 Q1650.7344,825.9998 1649.9688,825.9998 Z " fill="#000000"/><text fill="#000000" font-family="sans-serif" font-size="14" lengthAdjust="spacing" textLength="219" x="1664.5" y="824.5099">NodeCtrlFileSystemRootsCustom</text><line style="stroke:#181818;stroke-width:0.5;" x1="1636.5" x2="1885.5" y1="835.0779" y2="835.0779"/><line style="stroke:#181818;stroke-width:0.5;" x1="1636.5" x2="1885.5" y1="843.0779" y2="843.0779"/><rect fill="#F24D5C" height="6" style="stroke:#C82930;stroke-width:1.0;" width="6" x="1643.5" y="855.1119"/><text fill="#000000" font-family="sans-serif" font-size="14" lengthAdjust="spacing" textLength="208" x="1655.5" y="862.0439">boolean isSkippingSingleRoot()</text><polygon fill="#4177AF" points="1646.5,873.1798,1642.5,879.1798,1650.5,879.1798" style="stroke:#1963A0;stroke-width:1.0;"/><text fill="#000000" font-family="sans-serif" font-size="14" lengthAdjust="spacing" textLength="196" x="1655.5" y="881.1118">void updateDirectoryEntries()</text></g><!--class DirectoryEntry--><g id="elem_DirectoryEntry"><rect codeLine="57" fill="#F1F1F1" height="86.1358" id="DirectoryEntry" rx="2.5" ry="2.5" style="stroke:#181818;stroke-width:0.5;" width="326" x="801" y="491.7379"/><ellipse cx="914.25" cy="507.7379" fill="#A9DCDF" rx="11" ry="11" style="stroke:#181818;stroke-width:1.0;"/><path d="M909.4219,513.4879 L912.7656,501.3004 L915.9063,501.3004 L919.2813,513.4879 L916.8125,513.4879 L916.0781,510.4723 L912.5625,510.4723 L911.8125,513.4879 L909.4219,513.4879 Z M913.8281,505.441 L913.0781,508.441 L915.5938,508.441 L914.875,505.441 Q914.7344,504.8629 914.6094,504.316 Q914.4844,503.7535 914.3438,503.1754 Q914.2344,503.7535 914.0938,504.316 Q913.9531,504.8629 913.8281,505.441 Z " fill="#000000"/><text fill="#000000" font-family="sans-serif" font-size="14" font-style="italic" lengthAdjust="spacing" textLength="91" x="934.75" y="513.1699">DirectoryEntry</text><line style="stroke:#181818;stroke-width:0.5;" x1="802" x2="1126" y1="523.7379" y2="523.7379"/><line style="stroke:#181818;stroke-width:0.5;" x1="802" x2="1126" y1="531.7379" y2="531.7379"/><polygon fill="#4177AF" points="812,542.7719,808,548.7719,816,548.7719" style="stroke:#1963A0;stroke-width:1.0;"/><text fill="#000000" font-family="sans-serif" font-size="14" font-style="italic" lengthAdjust="spacing" textLength="144" x="821" y="550.7039">NodeCtrl getNodeCtrl()</text><ellipse cx="812" cy="565.8398" fill="#84BE84" rx="3" ry="3" style="stroke:#038048;stroke-width:1.0;"/><text fill="#000000" font-family="sans-serif" font-size="14" lengthAdjust="spacing" textLength="300" x="821" y="569.7718">void handleNodeExpansion(boolean expand)</text></g><!--class DirectoryEntrySubDirectory--><g id="elem_DirectoryEntrySubDirectory"><rect codeLine="63" fill="#F1F1F1" height="67.0679" id="DirectoryEntrySubDirectory" rx="2.5" ry="2.5" style="stroke:#181818;stroke-width:0.5;" width="227" x="1105.5" y="676.0179"/><ellipse cx="1125.9" cy="692.0179" fill="#ADD1B2" rx="11" ry="11" style="stroke:#181818;stroke-width:1.0;"/><path d="M1125.3688,698.9398 Q1123.6188,698.9398 1122.4781,698.2054 Q1121.3531,697.4554 1120.7906,696.1117 Q1120.2438,694.7523 1120.2438,692.9554 Q1120.2438,690.9242 1120.9,689.471 Q1121.5563,688.0179 1122.8375,687.2367 Q1124.1188,686.4554 1125.9938,686.4554 Q1126.8844,686.4554 1127.5563,686.6429 Q1128.2281,686.8148 1128.9156,687.1585 L1128.1031,689.1742 Q1127.4781,688.8617 1126.9313,688.7367 Q1126.4,688.6117 1125.9156,688.6117 Q1124.7438,688.6117 1124.0406,689.1429 Q1123.3375,689.6742 1123.0406,690.6273 Q1122.7438,691.5804 1122.7438,692.846 Q1122.7438,694.8617 1123.4625,695.8304 Q1124.1813,696.7835 1125.775,696.7835 Q1126.3688,696.7835 1126.9938,696.6273 Q1127.6188,696.471 1128.4469,696.096 L1128.4469,698.3148 Q1127.7125,698.6273 1126.9156,698.7835 Q1126.1344,698.9398 1125.3688,698.9398 Z " fill="#000000"/><text fill="#000000" font-family="sans-serif" font-size="14" lengthAdjust="spacing" textLength="183" x="1141.1" y="697.4499">DirectoryEntrySubDirectory</text><line style="stroke:#181818;stroke-width:0.5;" x1="1106.5" x2="1331.5" y1="708.0179" y2="708.0179"/><line style="stroke:#181818;stroke-width:0.5;" x1="1106.5" x2="1331.5" y1="716.0179" y2="716.0179"/><text fill="#000000" font-family="sans-serif" font-size="14" lengthAdjust="spacing" textLength="215" x="1111.5" y="734.9839">NodeCtrlDirectory getNodeCtrl()</text></g><!--class DirectoryEntryRegularFile--><g id="elem_DirectoryEntryRegularFile"><rect codeLine="67" fill="#F1F1F1" height="67.0679" id="DirectoryEntryRegularFile" rx="2.5" ry="2.5" style="stroke:#181818;stroke-width:0.5;" width="325" x="745.5" y="676.0179"/><ellipse cx="817.75" cy="692.0179" fill="#ADD1B2" rx="11" ry="11" style="stroke:#181818;stroke-width:1.0;"/><path d="M817.2188,698.9398 Q815.4688,698.9398 814.3281,698.2054 Q813.2031,697.4554 812.6406,696.1117 Q812.0938,694.7523 812.0938,692.9554 Q812.0938,690.9242 812.75,689.471 Q813.4063,688.0179 814.6875,687.2367 Q815.9688,686.4554 817.8438,686.4554 Q818.7344,686.4554 819.4063,686.6429 Q820.0781,686.8148 820.7656,687.1585 L819.9531,689.1742 Q819.3281,688.8617 818.7813,688.7367 Q818.25,688.6117 817.7656,688.6117 Q816.5938,688.6117 815.8906,689.1429 Q815.1875,689.6742 814.8906,690.6273 Q814.5938,691.5804 814.5938,692.846 Q814.5938,694.8617 815.3125,695.8304 Q816.0313,696.7835 817.625,696.7835 Q818.2188,696.7835 818.8438,696.6273 Q819.4688,696.471 820.2969,696.096 L820.2969,698.3148 Q819.5625,698.6273 818.7656,698.7835 Q817.9844,698.9398 817.2188,698.9398 Z " fill="#000000"/><text fill="#000000" font-family="sans-serif" font-size="14" lengthAdjust="spacing" textLength="172" x="838.25" y="697.4499">DirectoryEntryRegularFile</text><line style="stroke:#181818;stroke-width:0.5;" x1="746.5" x2="1069.5" y1="708.0179" y2="708.0179"/><line style="stroke:#181818;stroke-width:0.5;" x1="746.5" x2="1069.5" y1="716.0179" y2="716.0179"/><text fill="#000000" font-family="sans-serif" font-size="14" lengthAdjust="spacing" textLength="313" x="751.5" y="734.9839">NodeCtrlFileSystemRootsCustom getNodeCtrl()</text></g><!--reverse link Closeable to RootNodeCtrl--><g id="link_Closeable_RootNodeCtrl"><path d="M276,170.6079 C276,187.3279 276,190.5279 276,211.6679 " fill="none" id="Closeable-backto-RootNodeCtrl" style="stroke:#181818;stroke-width:1.0;"/><polygon fill="none" points="276,152.6079,270,170.6079,282,170.6079,276,152.6079" style="stroke:#181818;stroke-width:1.0;"/></g><!--reverse link PathView to DirectoryEntry--><g id="link_PathView_DirectoryEntry"><path d="M704.0692,356.4522 C764.6492,397.7822 841.33,450.1079 901.87,491.4179 " fill="none" id="PathView-backto-DirectoryEntry" style="stroke:#181818;stroke-width:1.0;"/><polygon fill="none" points="689.2,346.3079,700.6877,361.4086,707.4506,351.4958,689.2,346.3079" style="stroke:#181818;stroke-width:1.0;"/></g><!--reverse link DirectoryEntry to DirectoryEntrySubDirectory--><g id="link_DirectoryEntry_DirectoryEntrySubDirectory"><path d="M1041.6116,588.3846 C1085.9916,618.4546 1129.75,648.0879 1170.56,675.7379 " fill="none" id="DirectoryEntry-backto-DirectoryEntrySubDirectory" style="stroke:#181818;stroke-width:1.0;"/><polygon fill="none" points="1026.71,578.2879,1038.246,593.3518,1044.9771,583.4174,1026.71,578.2879" style="stroke:#181818;stroke-width:1.0;"/></g><!--reverse link DirectoryEntry to DirectoryEntryRegularFile--><g id="link_DirectoryEntry_DirectoryEntryRegularFile"><path d="M944.7465,595.1898 C934.9965,625.2498 927.65,647.9379 918.67,675.6479 " fill="none" id="DirectoryEntry-backto-DirectoryEntryRegularFile" style="stroke:#181818;stroke-width:1.0;"/><polygon fill="none" points="950.3,578.0679,939.0392,593.3386,950.4538,597.041,950.3,578.0679" style="stroke:#181818;stroke-width:1.0;"/></g><!--link DirectoryEntrySubDirectory to NodeCtrlDirectory--><g id="link_DirectoryEntrySubDirectory_NodeCtrlDirectory"><path codeLine="71" d="M1229.64,675.6779 C1247.13,624.7879 1285.44,525.3379 1339,453.6079 C1373.48,407.4279 1419.2256,368.3918 1455.8556,340.5118 " fill="none" id="DirectoryEntrySubDirectory-to-NodeCtrlDirectory" style="stroke:#181818;stroke-width:1.0;"/><polygon fill="#181818" points="1460.63,336.8779,1451.0458,339.1458,1456.6513,339.9062,1455.891,345.5117,1460.63,336.8779" style="stroke:#181818;stroke-width:1.0;"/></g><!--link DirectoryEntryRegularFile to NodeCtrlFileSystemRootsCustom--><g id="link_DirectoryEntryRegularFile_NodeCtrlFileSystemRootsCustom"><path codeLine="72" d="M1046.23,743.4879 C1060.29,746.2979 1074.4,748.8879 1088,751.0779 C1321.68,788.7079 1385.66,757.9279 1618,803.0779 C1623.72,804.1979 1623.6788,804.1099 1629.5388,805.4399 " fill="none" id="DirectoryEntryRegularFile-to-NodeCtrlFileSystemRootsCustom" style="stroke:#181818;stroke-width:1.0;"/><polygon fill="#181818" points="1635.39,806.7679,1627.4985,800.8751,1630.514,805.6612,1625.7279,808.6767,1635.39,806.7679" style="stroke:#181818;stroke-width:1.0;"/></g><!--link NodeCtrl to DirectoryEntry--><g id="link_NodeCtrl_DirectoryEntry"><path codeLine="83" d="M1356.87,534.8079 C1280.38,534.8079 1209.89,534.8079 1133.4,534.8079 " fill="none" id="NodeCtrl-to-DirectoryEntry" style="stroke:#181818;stroke-width:1.0;"/><polygon fill="#181818" points="1127.4,534.8079,1136.4,538.8079,1132.4,534.8079,1136.4,530.8079,1127.4,534.8079" style="stroke:#181818;stroke-width:1.0;"/></g><!--reverse link NodeCtrl to NodeCtrlFileSystemRoots--><g id="link_NodeCtrl_NodeCtrlFileSystemRoots"><path d="M1547,634.3679 C1547,655.2979 1547,658.6879 1547,675.5879 " fill="none" id="NodeCtrl-backto-NodeCtrlFileSystemRoots" style="stroke:#181818;stroke-width:1.0;"/><polygon fill="none" points="1547,616.3679,1541,634.3679,1553,634.3679,1547,616.3679" style="stroke:#181818;stroke-width:1.0;"/></g><!--link NodeCtrlDirectory to NodeCtrl--><g id="link_NodeCtrlDirectory_NodeCtrl"><path codeLine="93" d="M1512.73,336.8179 C1518,367.1179 1522.9459,395.5441 1529.9059,435.5641 " fill="none" id="NodeCtrlDirectory-to-NodeCtrl" style="stroke:#181818;stroke-width:1.0;"/><polygon fill="none" points="1532.99,453.2979,1535.8171,434.5361,1523.9946,436.5922,1532.99,453.2979" style="stroke:#181818;stroke-width:1.0;"/></g><!--reverse link NodeCtrlFileSystemRoots to NodeCtrlFileSystemRootsGlobal--><g id="link_NodeCtrlFileSystemRoots_NodeCtrlFileSystemRootsGlobal"><path d="M1522.2499,759.5423 C1511.6299,780.5523 1506.05,791.6179 1495.46,812.5579 " fill="none" id="NodeCtrlFileSystemRoots-backto-NodeCtrlFileSystemRootsGlobal" style="stroke:#181818;stroke-width:1.0;"/><polygon fill="none" points="1530.37,743.4779,1516.8951,756.8356,1527.6047,762.249,1530.37,743.4779" style="stroke:#181818;stroke-width:1.0;"/></g><!--reverse link RootNodeCtrl to NodeCtrlFileSystemRootsGlobal--><g id="link_RootNodeCtrl_NodeCtrlFileSystemRootsGlobal"><path d="M348.8571,408.5197 C426.8171,513.7197 560.23,669.1679 729,751.0779 C837.02,803.5079 1173.86,829.0479 1357.18,839.3579 " fill="none" id="RootNodeCtrl-backto-NodeCtrlFileSystemRootsGlobal" style="stroke:#181818;stroke-width:1.0;stroke-dasharray:7.0,7.0;"/><polygon fill="none" points="338.14,394.0579,344.0365,412.0921,353.6777,404.9473,338.14,394.0579" style="stroke:#181818;stroke-width:1.0;"/></g><!--reverse link NodeCtrlFileSystemRoots to NodeCtrlFileSystemRootsCustom--><g id="link_NodeCtrlFileSystemRoots_NodeCtrlFileSystemRootsCustom"><path d="M1614.5879,753.0594 C1642.9279,770.8794 1663.01,783.5179 1693.41,802.6379 " fill="none" id="NodeCtrlFileSystemRoots-backto-NodeCtrlFileSystemRootsCustom" style="stroke:#181818;stroke-width:1.0;"/><polygon fill="none" points="1599.35,743.4779,1611.3941,758.1387,1617.7818,747.9801,1599.35,743.4779" style="stroke:#181818;stroke-width:1.0;"/></g><!--SRC=[bLLDRnen43sply9ABubQ8hLIRrMaXf8gKfLMRDgxsPs0Yx6tzcm2IiblxuptWpKiWHuGk_FrtimyU_r2cK8wkHIeK8DuJWRNrkNW9hOq-SWw0qwy_zXOx-SgMnZmNdmWaymMCrV5QUl4vp-b78va3dYjIqWsIUBRwWN5oXcak2QG6x90abI8Dqf3klO8oti7y4l1ap0s1u7h0doIr8bYAZs8DxUFrgs9P390EmES4pbYF91JZqvcA38jYTiFYNCkH1vb4Do3p41ChCKxAZn2fvC1aUluHjfwa5DY8xqu-oqVvQMobwtrB80yMfKJ0DdEBmJEdNtoulRxU9L1WSgQgkO19g70s_0gY3V_dry4KufEcHaRxsWeR8ofTMaBM26Ot7VuSbrs1n0kKZ-7wWoJWeQC-JMuhI64XAOyu7XLI9D3VZwrLeCq15KPBhe0bJ6m3wrGjrQN2FpoJiIftwJ7iOOb66o1oYAN2Bpd09vQXv2dW9-um1KpR7YmmVSoh3otD1yUG9rPi37CRXDBvZBZkHqJp5ONXpnRbV92F0N6_Y_AqLH9d7kUdSolsawbFXOrAZtQPQM5ruYti6E37UpOd9RJVNfno0HcfPQEMVJgE8vkTHWctD4uLNzkCZVYfUskKIO_rxeFQvtJHZMm9spNiofZ5TNduLXRBQCTeitnY5Qqo-OGG6SefzJlNM4VrYjj38TNVP8wpAkRqA-Xv92agplfuENnijih1SIMEemQu4JF0SrpxGfGrZoeMJk7y5QxVtfmMsFfP7DFzJf2KYIlpfqICLCL0PvrsomFQkUq92SUzdRvqUHUEbykvhnzYpMrBxyg-p_8T_NnTxllFOZUgsQF_MvtQbbKrtHzdgClpibSJxZEZZ9Xi67x6L4-NQYYeAzZIZyD75CBvoYVJV8F]--></g></svg>